<?xml version="1.0" encoding="UTF-8" standalone="no"?>
<!DOCTYPE svg PUBLIC "-//W3C//DTD SVG 1.1//EN" "http://www.w3.org/Graphics/SVG/1.1/DTD/svg11.dtd">
<svg version="1.1" xmlns="http://www.w3.org/2000/svg" xmlns:xl="http://www.w3.org/1999/xlink" xmlns:dc="http://purl.org/dc/elements/1.1/" viewBox="881.5 -376.02 205 317.52" width="205" height="317.52">
  <defs>
    <marker orient="auto" overflow="visible" markerUnits="strokeWidth" id="FilledArrow_Marker" stroke-linejoin="miter" stroke-miterlimit="10" viewBox="-1 -3 7 6" markerWidth="7" markerHeight="6" color="#121212">
      <g>
        <path d="M 4.8 0 L 0 -1.8 L 0 1.8 Z" fill="currentColor" stroke="currentColor" stroke-width="1"/>
      </g>
    </marker>
  </defs>
  <g id="CSTG_Description" stroke="none" fill-opacity="1" stroke-opacity="1" stroke-dasharray="none" fill="none">
    <title>CSTG Description</title>
    <g id="CSTG_Description_Layer_1">
      <title>Layer 1</title>
      <g id="Group_294">
        <g id="Graphic_63">
          <path d="M 887 -369 L 1081 -369 C 1082.6569 -369 1084 -367.65685 1084 -366 L 1084 -340 C 1084 -338.34315 1082.6569 -337 1081 -337 L 887 -337 C 885.3431 -337 884 -338.34315 884 -340 L 884 -366 C 884 -367.65685 885.3431 -369 887 -369 Z" fill="#b48ead"/>
          <path d="M 887 -369 L 1081 -369 C 1082.6569 -369 1084 -367.65685 1084 -366 L 1084 -340 C 1084 -338.34315 1082.6569 -337 1081 -337 L 887 -337 C 885.3431 -337 884 -338.34315 884 -340 L 884 -366 C 884 -367.65685 885.3431 -369 887 -369 Z" stroke="#2d3440" stroke-linecap="round" stroke-linejoin="round" stroke-width="1"/>
          <text transform="translate(889 -374.02)" fill="#2d3440">
            <tspan font-family="JuliaMono" font-size="24" fill="#2d3440" x="44.6" y="29">Frame A</tspan>
          </text>
        </g>
        <g id="Graphic_62">
          <path d="M 887 -277 L 1081 -277 C 1082.6569 -277 1084 -275.65685 1084 -274 L 1084 -248 C 1084 -246.34315 1082.6569 -245 1081 -245 L 887 -245 C 885.3431 -245 884 -246.34315 884 -248 L 884 -274 C 884 -275.65685 885.3431 -277 887 -277 Z" fill="#a3be8c"/>
          <path d="M 887 -277 L 1081 -277 C 1082.6569 -277 1084 -275.65685 1084 -274 L 1084 -248 C 1084 -246.34315 1082.6569 -245 1081 -245 L 887 -245 C 885.3431 -245 884 -246.34315 884 -248 L 884 -274 C 884 -275.65685 885.3431 -277 887 -277 Z" stroke="#2d3440" stroke-linecap="round" stroke-linejoin="round" stroke-width="1"/>
          <text transform="translate(889 -282.02)" fill="#2d3440">
            <tspan font-family="JuliaMono" font-size="24" fill="#2d3440" x="44.6" y="29">Frame B</tspan>
          </text>
        </g>
        <g id="Line_61">
          <line x1="984" y1="-337" x2="984" y2="-289.9" marker-end="url(#FilledArrow_Marker)" stroke="#121212" stroke-linecap="butt" stroke-linejoin="round" stroke-width="2"/>
        </g>
        <g id="Graphic_60">
          <path d="M 887 -185 L 1081 -185 C 1082.6569 -185 1084 -183.65685 1084 -182 L 1084 -156 C 1084 -154.34315 1082.6569 -153 1081 -153 L 887 -153 C 885.3431 -153 884 -154.34315 884 -156 L 884 -182 C 884 -183.65685 885.3431 -185 887 -185 Z" fill="#eccb8b"/>
          <path d="M 887 -185 L 1081 -185 C 1082.6569 -185 1084 -183.65685 1084 -182 L 1084 -156 C 1084 -154.34315 1082.6569 -153 1081 -153 L 887 -153 C 885.3431 -153 884 -154.34315 884 -156 L 884 -182 C 884 -183.65685 885.3431 -185 887 -185 Z" stroke="#2d3440" stroke-linecap="round" stroke-linejoin="round" stroke-width="1"/>
          <text transform="translate(889 -190.02)" fill="#2d3440">
            <tspan font-family="JuliaMono" font-size="24" fill="#2d3440" x="44.6" y="29">Frame C</tspan>
          </text>
        </g>
        <g id="Line_59">
          <line x1="984" y1="-245" x2="984" y2="-197.9" marker-end="url(#FilledArrow_Marker)" stroke="#121212" stroke-linecap="butt" stroke-linejoin="round" stroke-width="2"/>
        </g>
        <g id="Graphic_58">
          <text transform="translate(990.4184 -326.96686)" fill="black">
            <tspan font-family="JuliaMono" font-size="16" fill="black" x="0" y="19">1</tspan>
          </text>
        </g>
        <g id="Graphic_57">
          <text transform="translate(990.4184 -234.96686)" fill="black">
            <tspan font-family="JuliaMono" font-size="16" fill="black" x="0" y="19">1</tspan>
          </text>
        </g>
        <g id="Graphic_64">
          <path d="M 887 -93 L 1081 -93 C 1082.6569 -93 1084 -91.65685 1084 -90 L 1084 -64 C 1084 -62.343146 1082.6569 -61 1081 -61 L 887 -61 C 885.3431 -61 884 -62.343146 884 -64 L 884 -90 C 884 -91.65685 885.3431 -93 887 -93 Z" fill="#d18770"/>
          <path d="M 887 -93 L 1081 -93 C 1082.6569 -93 1084 -91.65685 1084 -90 L 1084 -64 C 1084 -62.343146 1082.6569 -61 1081 -61 L 887 -61 C 885.3431 -61 884 -62.343146 884 -64 L 884 -90 C 884 -91.65685 885.3431 -93 887 -93 Z" stroke="#2d3440" stroke-linecap="round" stroke-linejoin="round" stroke-width="1"/>
          <text transform="translate(889 -98.02)" fill="#2d3440">
            <tspan font-family="JuliaMono" font-size="24" fill="#2d3440" x="44.6" y="29">Frame D</tspan>
          </text>
        </g>
        <g id="Line_65">
          <line x1="984" y1="-153" x2="984" y2="-105.9" marker-end="url(#FilledArrow_Marker)" stroke="#121212" stroke-linecap="butt" stroke-linejoin="round" stroke-width="2"/>
        </g>
        <g id="Graphic_66">
          <text transform="translate(990.4184 -142.96686)" fill="black">
            <tspan font-family="JuliaMono" font-size="16" fill="black" x="0" y="19">1</tspan>
          </text>
        </g>
      </g>
    </g>
  </g>
</svg>
