<?xml version="1.0" encoding="UTF-8" standalone="no"?>
<!DOCTYPE svg PUBLIC "-//W3C//DTD SVG 1.1//EN" "http://www.w3.org/Graphics/SVG/1.1/DTD/svg11.dtd">
<svg version="1.1" xmlns="http://www.w3.org/2000/svg" xmlns:xl="http://www.w3.org/1999/xlink" xmlns:dc="http://purl.org/dc/elements/1.1/" viewBox="1930.5 -370.02 445 317.52" width="445" height="317.52">
  <defs>
    <marker orient="auto" overflow="visible" markerUnits="strokeWidth" id="FilledArrow_Marker" stroke-linejoin="miter" stroke-miterlimit="10" viewBox="-1 -2 4 4" markerWidth="4" markerHeight="4" color="#121212">
      <g>
        <path d="M 1.0666667 0 L 0 -.4 L 0 .4 Z" fill="currentColor" stroke="currentColor" stroke-width="1"/>
      </g>
    </marker>
    <marker orient="auto" overflow="visible" markerUnits="strokeWidth" id="FilledArrow_Marker_2" stroke-linejoin="miter" stroke-miterlimit="10" viewBox="-1 -2 4 4" markerWidth="4" markerHeight="4" color="#121212">
      <g>
        <path d="M 1.6 0 L 0 -.6 L 0 .6 Z" fill="currentColor" stroke="currentColor" stroke-width="1"/>
      </g>
    </marker>
    <marker orient="auto" overflow="visible" markerUnits="strokeWidth" id="FilledArrow_Marker_3" stroke-linejoin="miter" stroke-miterlimit="10" viewBox="-1 -3 7 6" markerWidth="7" markerHeight="6" color="#121212">
      <g>
        <path d="M 4.8 0 L 0 -1.8 L 0 1.8 Z" fill="currentColor" stroke="currentColor" stroke-width="1"/>
      </g>
    </marker>
  </defs>
  <g id="CSTG_Description" stroke="none" fill-opacity="1" stroke-opacity="1" stroke-dasharray="none" fill="none">
    <title>CSTG Description</title>
    <g id="CSTG_Description_Layer_1">
      <title>Layer 1</title>
      <g id="Group_300">
        <g id="Graphic_166">
          <path d="M 1936 -363 L 2130 -363 C 2131.6569 -363 2133 -361.65685 2133 -360 L 2133 -334 C 2133 -332.34315 2131.6569 -331 2130 -331 L 1936 -331 C 1934.3431 -331 1933 -332.34315 1933 -334 L 1933 -360 C 1933 -361.65685 1934.3431 -363 1936 -363 Z" fill="#b48ead"/>
          <path d="M 1936 -363 L 2130 -363 C 2131.6569 -363 2133 -361.65685 2133 -360 L 2133 -334 C 2133 -332.34315 2131.6569 -331 2130 -331 L 1936 -331 C 1934.3431 -331 1933 -332.34315 1933 -334 L 1933 -360 C 1933 -361.65685 1934.3431 -363 1936 -363 Z" stroke="#2d3440" stroke-linecap="round" stroke-linejoin="round" stroke-width="1"/>
          <text transform="translate(1938 -368.02)" fill="#2d3440">
            <tspan font-family="JuliaMono" font-size="24" fill="#2d3440" x="44.6" y="29">Frame A</tspan>
          </text>
        </g>
        <g id="Graphic_165">
          <path d="M 1936 -271 L 2130 -271 C 2131.6569 -271 2133 -269.65685 2133 -268 L 2133 -242 C 2133 -240.34315 2131.6569 -239 2130 -239 L 1936 -239 C 1934.3431 -239 1933 -240.34315 1933 -242 L 1933 -268 C 1933 -269.65685 1934.3431 -271 1936 -271 Z" fill="#a3be8c"/>
          <path d="M 1936 -271 L 2130 -271 C 2131.6569 -271 2133 -269.65685 2133 -268 L 2133 -242 C 2133 -240.34315 2131.6569 -239 2130 -239 L 1936 -239 C 1934.3431 -239 1933 -240.34315 1933 -242 L 1933 -268 C 1933 -269.65685 1934.3431 -271 1936 -271 Z" stroke="#2d3440" stroke-linecap="round" stroke-linejoin="round" stroke-width="1"/>
          <text transform="translate(1938 -276.02)" fill="#2d3440">
            <tspan font-family="JuliaMono" font-size="24" fill="#2d3440" x="44.6" y="29">Frame B</tspan>
          </text>
        </g>
        <g id="Line_164">
          <line x1="2033" y1="-331" x2="2033" y2="-286.3" marker-end="url(#FilledArrow_Marker)" stroke="#121212" stroke-linecap="butt" stroke-linejoin="round" stroke-width="6"/>
        </g>
        <g id="Graphic_163">
          <path d="M 1936 -179 L 2130 -179 C 2131.6569 -179 2133 -177.65685 2133 -176 L 2133 -150 C 2133 -148.34315 2131.6569 -147 2130 -147 L 1936 -147 C 1934.3431 -147 1933 -148.34315 1933 -150 L 1933 -176 C 1933 -177.65685 1934.3431 -179 1936 -179 Z" fill="#eccb8b"/>
          <path d="M 1936 -179 L 2130 -179 C 2131.6569 -179 2133 -177.65685 2133 -176 L 2133 -150 C 2133 -148.34315 2131.6569 -147 2130 -147 L 1936 -147 C 1934.3431 -147 1933 -148.34315 1933 -150 L 1933 -176 C 1933 -177.65685 1934.3431 -179 1936 -179 Z" stroke="#2d3440" stroke-linecap="round" stroke-linejoin="round" stroke-width="1"/>
          <text transform="translate(1938 -184.02)" fill="#2d3440">
            <tspan font-family="JuliaMono" font-size="24" fill="#2d3440" x="44.6" y="29">Frame C</tspan>
          </text>
        </g>
        <g id="Line_162">
          <line x1="2033" y1="-239" x2="2033" y2="-191.5" marker-end="url(#FilledArrow_Marker_2)" stroke="#121212" stroke-linecap="butt" stroke-linejoin="round" stroke-width="4"/>
        </g>
        <g id="Graphic_161">
          <text transform="translate(2039.4184 -320.96686)" fill="black">
            <tspan font-family="JuliaMono" font-size="16" fill="black" x="0" y="19">3</tspan>
          </text>
        </g>
        <g id="Graphic_160">
          <text transform="translate(2039.4184 -228.96686)" fill="black">
            <tspan font-family="JuliaMono" font-size="16" fill="black" x="0" y="19">2</tspan>
          </text>
        </g>
        <g id="Graphic_159">
          <path d="M 1936 -87 L 2130 -87 C 2131.6569 -87 2133 -85.65685 2133 -84 L 2133 -58 C 2133 -56.343146 2131.6569 -55 2130 -55 L 1936 -55 C 1934.3431 -55 1933 -56.343146 1933 -58 L 1933 -84 C 1933 -85.65685 1934.3431 -87 1936 -87 Z" fill="#d18770"/>
          <path d="M 1936 -87 L 2130 -87 C 2131.6569 -87 2133 -85.65685 2133 -84 L 2133 -58 C 2133 -56.343146 2131.6569 -55 2130 -55 L 1936 -55 C 1934.3431 -55 1933 -56.343146 1933 -58 L 1933 -84 C 1933 -85.65685 1934.3431 -87 1936 -87 Z" stroke="#2d3440" stroke-linecap="round" stroke-linejoin="round" stroke-width="1"/>
          <text transform="translate(1938 -92.02)" fill="#2d3440">
            <tspan font-family="JuliaMono" font-size="24" fill="#2d3440" x="44.6" y="29">Frame D</tspan>
          </text>
        </g>
        <g id="Line_158">
          <line x1="2033" y1="-147" x2="2033" y2="-99.5" marker-end="url(#FilledArrow_Marker_2)" stroke="#121212" stroke-linecap="butt" stroke-linejoin="round" stroke-width="4"/>
        </g>
        <g id="Graphic_157">
          <text transform="translate(2039.4184 -136.96686)" fill="black">
            <tspan font-family="JuliaMono" font-size="16" fill="black" x="0" y="19">2</tspan>
          </text>
        </g>
        <g id="Graphic_156">
          <path d="M 2176 -179 L 2370 -179 C 2371.6569 -179 2373 -177.65685 2373 -176 L 2373 -150 C 2373 -148.34315 2371.6569 -147 2370 -147 L 2176 -147 C 2174.3431 -147 2173 -148.34315 2173 -150 L 2173 -176 C 2173 -177.65685 2174.3431 -179 2176 -179 Z" fill="#5d81ac"/>
          <path d="M 2176 -179 L 2370 -179 C 2371.6569 -179 2373 -177.65685 2373 -176 L 2373 -150 C 2373 -148.34315 2371.6569 -147 2370 -147 L 2176 -147 C 2174.3431 -147 2173 -148.34315 2173 -150 L 2173 -176 C 2173 -177.65685 2174.3431 -179 2176 -179 Z" stroke="#2d3440" stroke-linecap="round" stroke-linejoin="round" stroke-width="1"/>
          <text transform="translate(2178 -184.02)" fill="#2d3440">
            <tspan font-family="JuliaMono" font-size="24" fill="#2d3440" x="44.6" y="29">Frame E</tspan>
          </text>
        </g>
        <g id="Line_155">
          <line x1="2083" y1="-239" x2="2211.143" y2="-184.08156" marker-end="url(#FilledArrow_Marker_3)" stroke="#121212" stroke-linecap="butt" stroke-linejoin="round" stroke-width="2"/>
        </g>
        <g id="Graphic_154">
          <text transform="translate(2132.8632 -239.27822)" fill="black">
            <tspan font-family="JuliaMono" font-size="16" fill="black" x="0" y="19">1</tspan>
          </text>
        </g>
        <g id="Graphic_167">
          <path d="M 2176 -87 L 2370 -87 C 2371.6569 -87 2373 -85.65685 2373 -84 L 2373 -58 C 2373 -56.343146 2371.6569 -55 2370 -55 L 2176 -55 C 2174.3431 -55 2173 -56.343146 2173 -58 L 2173 -84 C 2173 -85.65685 2174.3431 -87 2176 -87 Z" fill="#88c1d0"/>
          <path d="M 2176 -87 L 2370 -87 C 2371.6569 -87 2373 -85.65685 2373 -84 L 2373 -58 C 2373 -56.343146 2371.6569 -55 2370 -55 L 2176 -55 C 2174.3431 -55 2173 -56.343146 2173 -58 L 2173 -84 C 2173 -85.65685 2174.3431 -87 2176 -87 Z" stroke="#2d3440" stroke-linecap="round" stroke-linejoin="round" stroke-width="1"/>
          <text transform="translate(2178 -92.02)" fill="#2d3440">
            <tspan font-family="JuliaMono" font-size="24" fill="#2d3440" x="44.6" y="29">Frame F</tspan>
          </text>
        </g>
        <g id="Line_168">
          <line x1="2273" y1="-147" x2="2273" y2="-99.9" marker-end="url(#FilledArrow_Marker_3)" stroke="#121212" stroke-linecap="butt" stroke-linejoin="round" stroke-width="2"/>
        </g>
        <g id="Graphic_169">
          <text transform="translate(2279.4184 -136.96686)" fill="black">
            <tspan font-family="JuliaMono" font-size="16" fill="black" x="0" y="19">1</tspan>
          </text>
        </g>
      </g>
    </g>
  </g>
</svg>
