<?xml version="1.0" encoding="UTF-8" standalone="no"?>
<!DOCTYPE svg PUBLIC "-//W3C//DTD SVG 1.1//EN" "http://www.w3.org/Graphics/SVG/1.1/DTD/svg11.dtd">
<svg version="1.1" xmlns="http://www.w3.org/2000/svg" xmlns:xl="http://www.w3.org/1999/xlink" xmlns:dc="http://purl.org/dc/elements/1.1/" viewBox="2599.5 -1162.02 445 317.52" width="445" height="317.52">
  <defs>
    <marker orient="auto" overflow="visible" markerUnits="strokeWidth" id="FilledArrow_Marker" stroke-linejoin="miter" stroke-miterlimit="10" viewBox="-1 -2 4 4" markerWidth="4" markerHeight="4" color="#121212">
      <g>
        <path d="M 1.0057143 0 L 0 -.37714286 L 0 .37714286 Z" fill="currentColor" stroke="currentColor" stroke-width="1"/>
      </g>
    </marker>
    <marker orient="auto" overflow="visible" markerUnits="strokeWidth" id="FilledArrow_Marker_2" stroke-linejoin="miter" stroke-miterlimit="10" viewBox="-1 -2 4 4" markerWidth="4" markerHeight="4" color="#121212">
      <g>
        <path d="M 1.6 0 L 0 -.6 L 0 .6 Z" fill="currentColor" stroke="currentColor" stroke-width="1"/>
      </g>
    </marker>
    <marker orient="auto" overflow="visible" markerUnits="strokeWidth" id="FilledArrow_Marker_3" stroke-linejoin="miter" stroke-miterlimit="10" viewBox="-1 -3 7 6" markerWidth="7" markerHeight="6" color="#121212">
      <g>
        <path d="M 4.8 0 L 0 -1.8 L 0 1.8 Z" fill="currentColor" stroke="currentColor" stroke-width="1"/>
      </g>
    </marker>
  </defs>
  <g id="CSTG_Description" stroke="none" fill-opacity="1" stroke-opacity="1" stroke-dasharray="none" fill="none">
    <title>CSTG Description</title>
    <g id="CSTG_Description_Layer_1">
      <title>Layer 1</title>
      <g id="Group_301">
        <g id="Graphic_185">
          <path d="M 2605 -1155 L 2799 -1155 C 2800.657 -1155 2802 -1153.6569 2802 -1152 L 2802 -1126 C 2802 -1124.3431 2800.657 -1123 2799 -1123 L 2605 -1123 C 2603.343 -1123 2602 -1124.3431 2602 -1126 L 2602 -1152 C 2602 -1153.6569 2603.343 -1155 2605 -1155 Z" fill="#b48ead"/>
          <path d="M 2605 -1155 L 2799 -1155 C 2800.657 -1155 2802 -1153.6569 2802 -1152 L 2802 -1126 C 2802 -1124.3431 2800.657 -1123 2799 -1123 L 2605 -1123 C 2603.343 -1123 2602 -1124.3431 2602 -1126 L 2602 -1152 C 2602 -1153.6569 2603.343 -1155 2605 -1155 Z" stroke="#2d3440" stroke-linecap="round" stroke-linejoin="round" stroke-width="1"/>
          <text transform="translate(2607 -1160.02)" fill="#2d3440">
            <tspan font-family="JuliaMono" font-size="24" fill="#2d3440" x="44.6" y="29">Frame A</tspan>
          </text>
        </g>
        <g id="Line_183">
          <line x1="2702" y1="-1123" x2="2702" y2="-1080.34" marker-end="url(#FilledArrow_Marker)" stroke="#121212" stroke-linecap="butt" stroke-linejoin="round" stroke-width="7"/>
        </g>
        <g id="Graphic_182">
          <path d="M 2605 -971 L 2799 -971 C 2800.657 -971 2802 -969.6569 2802 -968 L 2802 -942 C 2802 -940.3431 2800.657 -939 2799 -939 L 2605 -939 C 2603.343 -939 2602 -940.3431 2602 -942 L 2602 -968 C 2602 -969.6569 2603.343 -971 2605 -971 Z" fill="#eccb8b"/>
          <path d="M 2605 -971 L 2799 -971 C 2800.657 -971 2802 -969.6569 2802 -968 L 2802 -942 C 2802 -940.3431 2800.657 -939 2799 -939 L 2605 -939 C 2603.343 -939 2602 -940.3431 2602 -942 L 2602 -968 C 2602 -969.6569 2603.343 -971 2605 -971 Z" stroke="#2d3440" stroke-linecap="round" stroke-linejoin="round" stroke-width="1"/>
          <text transform="translate(2607 -976.02)" fill="#2d3440">
            <tspan font-family="JuliaMono" font-size="24" fill="#2d3440" x="44.6" y="29">Frame C</tspan>
          </text>
        </g>
        <g id="Line_181">
          <line x1="2702" y1="-1031" x2="2702" y2="-983.5" marker-end="url(#FilledArrow_Marker_2)" stroke="#121212" stroke-linecap="butt" stroke-linejoin="round" stroke-width="4"/>
        </g>
        <g id="Graphic_180">
          <text transform="translate(2708.4184 -1112.9669)" fill="black">
            <tspan font-family="JuliaMono" font-size="16" fill="black" x="0" y="19">4</tspan>
          </text>
        </g>
        <g id="Graphic_179">
          <text transform="translate(2708.4184 -1020.9669)" fill="black">
            <tspan font-family="JuliaMono" font-size="16" fill="black" x="0" y="19">2</tspan>
          </text>
        </g>
        <g id="Graphic_178">
          <path d="M 2605 -879 L 2799 -879 C 2800.657 -879 2802 -877.6569 2802 -876 L 2802 -850 C 2802 -848.3431 2800.657 -847 2799 -847 L 2605 -847 C 2603.343 -847 2602 -848.3431 2602 -850 L 2602 -876 C 2602 -877.6569 2603.343 -879 2605 -879 Z" fill="#d18770"/>
          <path d="M 2605 -879 L 2799 -879 C 2800.657 -879 2802 -877.6569 2802 -876 L 2802 -850 C 2802 -848.3431 2800.657 -847 2799 -847 L 2605 -847 C 2603.343 -847 2602 -848.3431 2602 -850 L 2602 -876 C 2602 -877.6569 2603.343 -879 2605 -879 Z" stroke="#2d3440" stroke-linecap="round" stroke-linejoin="round" stroke-width="1"/>
          <text transform="translate(2607 -884.02)" fill="#2d3440">
            <tspan font-family="JuliaMono" font-size="24" fill="#2d3440" x="44.6" y="29">Frame D</tspan>
          </text>
        </g>
        <g id="Line_177">
          <line x1="2702" y1="-939" x2="2702" y2="-891.5" marker-end="url(#FilledArrow_Marker_2)" stroke="#121212" stroke-linecap="butt" stroke-linejoin="round" stroke-width="4"/>
        </g>
        <g id="Graphic_176">
          <text transform="translate(2708.4184 -928.9669)" fill="black">
            <tspan font-family="JuliaMono" font-size="16" fill="black" x="0" y="19">2</tspan>
          </text>
        </g>
        <g id="Graphic_175">
          <path d="M 2845 -971 L 3039 -971 C 3040.657 -971 3042 -969.6569 3042 -968 L 3042 -942 C 3042 -940.3431 3040.657 -939 3039 -939 L 2845 -939 C 2843.343 -939 2842 -940.3431 2842 -942 L 2842 -968 C 2842 -969.6569 2843.343 -971 2845 -971 Z" fill="#5d81ac"/>
          <path d="M 2845 -971 L 3039 -971 C 3040.657 -971 3042 -969.6569 3042 -968 L 3042 -942 C 3042 -940.3431 3040.657 -939 3039 -939 L 2845 -939 C 2843.343 -939 2842 -940.3431 2842 -942 L 2842 -968 C 2842 -969.6569 2843.343 -971 2845 -971 Z" stroke="#2d3440" stroke-linecap="round" stroke-linejoin="round" stroke-width="1"/>
          <text transform="translate(2847 -976.02)" fill="#2d3440">
            <tspan font-family="JuliaMono" font-size="24" fill="#2d3440" x="44.6" y="29">Frame E</tspan>
          </text>
        </g>
        <g id="Line_174">
          <line x1="2752" y1="-1031" x2="2880.143" y2="-976.0816" marker-end="url(#FilledArrow_Marker_3)" stroke="#121212" stroke-linecap="butt" stroke-linejoin="round" stroke-width="2"/>
        </g>
        <g id="Graphic_173">
          <text transform="translate(2801.863 -1031.2782)" fill="black">
            <tspan font-family="JuliaMono" font-size="16" fill="black" x="0" y="19">1</tspan>
          </text>
        </g>
        <g id="Graphic_172">
          <path d="M 2845 -879 L 3039 -879 C 3040.657 -879 3042 -877.6569 3042 -876 L 3042 -850 C 3042 -848.3431 3040.657 -847 3039 -847 L 2845 -847 C 2843.343 -847 2842 -848.3431 2842 -850 L 2842 -876 C 2842 -877.6569 2843.343 -879 2845 -879 Z" fill="#88c1d0"/>
          <path d="M 2845 -879 L 3039 -879 C 3040.657 -879 3042 -877.6569 3042 -876 L 3042 -850 C 3042 -848.3431 3040.657 -847 3039 -847 L 2845 -847 C 2843.343 -847 2842 -848.3431 2842 -850 L 2842 -876 C 2842 -877.6569 2843.343 -879 2845 -879 Z" stroke="#2d3440" stroke-linecap="round" stroke-linejoin="round" stroke-width="1"/>
          <text transform="translate(2847 -884.02)" fill="#2d3440">
            <tspan font-family="JuliaMono" font-size="24" fill="#2d3440" x="44.6" y="29">Frame F</tspan>
          </text>
        </g>
        <g id="Line_171">
          <line x1="2942" y1="-939" x2="2942" y2="-891.9" marker-end="url(#FilledArrow_Marker_3)" stroke="#121212" stroke-linecap="butt" stroke-linejoin="round" stroke-width="2"/>
        </g>
        <g id="Graphic_170">
          <text transform="translate(2948.4184 -928.9669)" fill="black">
            <tspan font-family="JuliaMono" font-size="16" fill="black" x="0" y="19">1</tspan>
          </text>
        </g>
        <g id="Graphic_184">
          <path d="M 2605 -1063 L 2799 -1063 C 2800.657 -1063 2802 -1061.6569 2802 -1060 L 2802 -1034 C 2802 -1032.3431 2800.657 -1031 2799 -1031 L 2605 -1031 C 2603.343 -1031 2602 -1032.3431 2602 -1034 L 2602 -1060 C 2602 -1061.6569 2603.343 -1063 2605 -1063 Z" fill="#a3be8c"/>
          <path d="M 2605 -1063 L 2799 -1063 C 2800.657 -1063 2802 -1061.6569 2802 -1060 L 2802 -1034 C 2802 -1032.3431 2800.657 -1031 2799 -1031 L 2605 -1031 C 2603.343 -1031 2602 -1032.3431 2602 -1034 L 2602 -1060 C 2602 -1061.6569 2603.343 -1063 2605 -1063 Z" stroke="#2d3440" stroke-linecap="round" stroke-linejoin="round" stroke-width="1"/>
          <text transform="translate(2607 -1068.02)" fill="#2d3440">
            <tspan font-family="JuliaMono" font-size="24" fill="#2d3440" x="44.6" y="29">Frame B</tspan>
          </text>
        </g>
      </g>
    </g>
  </g>
</svg>
