<?xml version="1.0" encoding="UTF-8" standalone="no"?>
<!DOCTYPE svg PUBLIC "-//W3C//DTD SVG 1.1//EN" "http://www.w3.org/Graphics/SVG/1.1/DTD/svg11.dtd">
<svg version="1.1" xmlns="http://www.w3.org/2000/svg" xmlns:xl="http://www.w3.org/1999/xlink" xmlns:dc="http://purl.org/dc/elements/1.1/" viewBox="1348.5 -769.02 205 317.52" width="205" height="317.52">
  <defs>
    <marker orient="auto" overflow="visible" markerUnits="strokeWidth" id="FilledArrow_Marker" stroke-linejoin="miter" stroke-miterlimit="10" viewBox="-1 -2 4 4" markerWidth="4" markerHeight="4" color="#121212">
      <g>
        <path d="M 1.6 0 L 0 -.6 L 0 .6 Z" fill="currentColor" stroke="currentColor" stroke-width="1"/>
      </g>
    </marker>
    <marker orient="auto" overflow="visible" markerUnits="strokeWidth" id="FilledArrow_Marker_2" stroke-linejoin="miter" stroke-miterlimit="10" viewBox="-1 -3 7 6" markerWidth="7" markerHeight="6" color="#121212">
      <g>
        <path d="M 4.8 0 L 0 -1.8 L 0 1.8 Z" fill="currentColor" stroke="currentColor" stroke-width="1"/>
      </g>
    </marker>
  </defs>
  <g id="CSTG_Description" stroke="none" fill-opacity="1" stroke-opacity="1" stroke-dasharray="none" fill="none">
    <title>CSTG Description</title>
    <g id="CSTG_Description_Layer_1">
      <title>Layer 1</title>
      <g id="Group_296">
        <g id="Graphic_76">
          <path d="M 1354 -762 L 1548 -762 C 1549.6569 -762 1551 -760.65685 1551 -759 L 1551 -733 C 1551 -731.34315 1549.6569 -730 1548 -730 L 1354 -730 C 1352.3431 -730 1351 -731.34315 1351 -733 L 1351 -759 C 1351 -760.65685 1352.3431 -762 1354 -762 Z" fill="#b48ead"/>
          <path d="M 1354 -762 L 1548 -762 C 1549.6569 -762 1551 -760.65685 1551 -759 L 1551 -733 C 1551 -731.34315 1549.6569 -730 1548 -730 L 1354 -730 C 1352.3431 -730 1351 -731.34315 1351 -733 L 1351 -759 C 1351 -760.65685 1352.3431 -762 1354 -762 Z" stroke="#2d3440" stroke-linecap="round" stroke-linejoin="round" stroke-width="1"/>
          <text transform="translate(1356 -767.02)" fill="#2d3440">
            <tspan font-family="JuliaMono" font-size="24" fill="#2d3440" x="44.6" y="29">Frame A</tspan>
          </text>
        </g>
        <g id="Graphic_75">
          <path d="M 1354 -670 L 1548 -670 C 1549.6569 -670 1551 -668.65685 1551 -667 L 1551 -641 C 1551 -639.34315 1549.6569 -638 1548 -638 L 1354 -638 C 1352.3431 -638 1351 -639.34315 1351 -641 L 1351 -667 C 1351 -668.65685 1352.3431 -670 1354 -670 Z" fill="#a3be8c"/>
          <path d="M 1354 -670 L 1548 -670 C 1549.6569 -670 1551 -668.65685 1551 -667 L 1551 -641 C 1551 -639.34315 1549.6569 -638 1548 -638 L 1354 -638 C 1352.3431 -638 1351 -639.34315 1351 -641 L 1351 -667 C 1351 -668.65685 1352.3431 -670 1354 -670 Z" stroke="#2d3440" stroke-linecap="round" stroke-linejoin="round" stroke-width="1"/>
          <text transform="translate(1356 -675.02)" fill="#2d3440">
            <tspan font-family="JuliaMono" font-size="24" fill="#2d3440" x="44.6" y="29">Frame B</tspan>
          </text>
        </g>
        <g id="Line_74">
          <line x1="1451" y1="-730" x2="1451" y2="-682.5" marker-end="url(#FilledArrow_Marker)" stroke="#121212" stroke-linecap="butt" stroke-linejoin="round" stroke-width="4"/>
        </g>
        <g id="Graphic_73">
          <path d="M 1354 -578 L 1548 -578 C 1549.6569 -578 1551 -576.65685 1551 -575 L 1551 -549 C 1551 -547.34315 1549.6569 -546 1548 -546 L 1354 -546 C 1352.3431 -546 1351 -547.34315 1351 -549 L 1351 -575 C 1351 -576.65685 1352.3431 -578 1354 -578 Z" fill="#eccb8b"/>
          <path d="M 1354 -578 L 1548 -578 C 1549.6569 -578 1551 -576.65685 1551 -575 L 1551 -549 C 1551 -547.34315 1549.6569 -546 1548 -546 L 1354 -546 C 1352.3431 -546 1351 -547.34315 1351 -549 L 1351 -575 C 1351 -576.65685 1352.3431 -578 1354 -578 Z" stroke="#2d3440" stroke-linecap="round" stroke-linejoin="round" stroke-width="1"/>
          <text transform="translate(1356 -583.02)" fill="#2d3440">
            <tspan font-family="JuliaMono" font-size="24" fill="#2d3440" x="44.6" y="29">Frame C</tspan>
          </text>
        </g>
        <g id="Line_72">
          <line x1="1451" y1="-638" x2="1451" y2="-590.9" marker-end="url(#FilledArrow_Marker_2)" stroke="#121212" stroke-linecap="butt" stroke-linejoin="round" stroke-width="2"/>
        </g>
        <g id="Graphic_71">
          <text transform="translate(1457.4184 -719.96686)" fill="black">
            <tspan font-family="JuliaMono" font-size="16" fill="black" x="0" y="19">2</tspan>
          </text>
        </g>
        <g id="Graphic_70">
          <text transform="translate(1457.4184 -627.96686)" fill="black">
            <tspan font-family="JuliaMono" font-size="16" fill="black" x="0" y="19">1</tspan>
          </text>
        </g>
        <g id="Graphic_69">
          <path d="M 1354 -486 L 1548 -486 C 1549.6569 -486 1551 -484.65685 1551 -483 L 1551 -457 C 1551 -455.34315 1549.6569 -454 1548 -454 L 1354 -454 C 1352.3431 -454 1351 -455.34315 1351 -457 L 1351 -483 C 1351 -484.65685 1352.3431 -486 1354 -486 Z" fill="#d18770"/>
          <path d="M 1354 -486 L 1548 -486 C 1549.6569 -486 1551 -484.65685 1551 -483 L 1551 -457 C 1551 -455.34315 1549.6569 -454 1548 -454 L 1354 -454 C 1352.3431 -454 1351 -455.34315 1351 -457 L 1351 -483 C 1351 -484.65685 1352.3431 -486 1354 -486 Z" stroke="#2d3440" stroke-linecap="round" stroke-linejoin="round" stroke-width="1"/>
          <text transform="translate(1356 -491.02)" fill="#2d3440">
            <tspan font-family="JuliaMono" font-size="24" fill="#2d3440" x="44.6" y="29">Frame D</tspan>
          </text>
        </g>
        <g id="Line_68">
          <line x1="1451" y1="-546" x2="1451" y2="-498.9" marker-end="url(#FilledArrow_Marker_2)" stroke="#121212" stroke-linecap="butt" stroke-linejoin="round" stroke-width="2"/>
        </g>
        <g id="Graphic_67">
          <text transform="translate(1457.4184 -535.96686)" fill="black">
            <tspan font-family="JuliaMono" font-size="16" fill="black" x="0" y="19">1</tspan>
          </text>
        </g>
      </g>
    </g>
  </g>
</svg>
