<?xml version="1.0" encoding="UTF-8" standalone="no"?>
<!DOCTYPE svg PUBLIC "-//W3C//DTD SVG 1.1//EN" "http://www.w3.org/Graphics/SVG/1.1/DTD/svg11.dtd">
<svg version="1.1" xmlns="http://www.w3.org/2000/svg" xmlns:xl="http://www.w3.org/1999/xlink" xmlns:dc="http://purl.org/dc/elements/1.1/" viewBox="1348.5 -1159.02 205 317.52" width="205" height="317.52">
  <defs>
    <marker orient="auto" overflow="visible" markerUnits="strokeWidth" id="FilledArrow_Marker" stroke-linejoin="miter" stroke-miterlimit="10" viewBox="-1 -2 4 4" markerWidth="4" markerHeight="4" color="#121212">
      <g>
        <path d="M 1.6 0 L 0 -.6 L 0 .6 Z" fill="currentColor" stroke="currentColor" stroke-width="1"/>
      </g>
    </marker>
    <marker orient="auto" overflow="visible" markerUnits="strokeWidth" id="FilledArrow_Marker_2" stroke-linejoin="miter" stroke-miterlimit="10" viewBox="-1 -3 7 6" markerWidth="7" markerHeight="6" color="#121212">
      <g>
        <path d="M 4.8 0 L 0 -1.8 L 0 1.8 Z" fill="currentColor" stroke="currentColor" stroke-width="1"/>
      </g>
    </marker>
  </defs>
  <g id="CSTG_Description" stroke="none" fill-opacity="1" stroke-opacity="1" stroke-dasharray="none" fill="none">
    <title>CSTG Description</title>
    <g id="CSTG_Description_Layer_1">
      <title>Layer 1</title>
      <g id="Group_295">
        <g id="Graphic_86">
          <path d="M 1354 -1152 L 1548 -1152 C 1549.6569 -1152 1551 -1150.6569 1551 -1149 L 1551 -1123 C 1551 -1121.3431 1549.6569 -1120 1548 -1120 L 1354 -1120 C 1352.3431 -1120 1351 -1121.3431 1351 -1123 L 1351 -1149 C 1351 -1150.6569 1352.3431 -1152 1354 -1152 Z" fill="#b48ead"/>
          <path d="M 1354 -1152 L 1548 -1152 C 1549.6569 -1152 1551 -1150.6569 1551 -1149 L 1551 -1123 C 1551 -1121.3431 1549.6569 -1120 1548 -1120 L 1354 -1120 C 1352.3431 -1120 1351 -1121.3431 1351 -1123 L 1351 -1149 C 1351 -1150.6569 1352.3431 -1152 1354 -1152 Z" stroke="#2d3440" stroke-linecap="round" stroke-linejoin="round" stroke-width="1"/>
          <text transform="translate(1356 -1157.02)" fill="#2d3440">
            <tspan font-family="JuliaMono" font-size="24" fill="#2d3440" x="44.6" y="29">Frame A</tspan>
          </text>
        </g>
        <g id="Graphic_85">
          <path d="M 1354 -1060 L 1548 -1060 C 1549.6569 -1060 1551 -1058.6569 1551 -1057 L 1551 -1031 C 1551 -1029.3431 1549.6569 -1028 1548 -1028 L 1354 -1028 C 1352.3431 -1028 1351 -1029.3431 1351 -1031 L 1351 -1057 C 1351 -1058.6569 1352.3431 -1060 1354 -1060 Z" fill="#a3be8c"/>
          <path d="M 1354 -1060 L 1548 -1060 C 1549.6569 -1060 1551 -1058.6569 1551 -1057 L 1551 -1031 C 1551 -1029.3431 1549.6569 -1028 1548 -1028 L 1354 -1028 C 1352.3431 -1028 1351 -1029.3431 1351 -1031 L 1351 -1057 C 1351 -1058.6569 1352.3431 -1060 1354 -1060 Z" stroke="#2d3440" stroke-linecap="round" stroke-linejoin="round" stroke-width="1"/>
          <text transform="translate(1356 -1065.02)" fill="#2d3440">
            <tspan font-family="JuliaMono" font-size="24" fill="#2d3440" x="44.6" y="29">Frame B</tspan>
          </text>
        </g>
        <g id="Line_84">
          <line x1="1451" y1="-1120" x2="1451" y2="-1072.5" marker-end="url(#FilledArrow_Marker)" stroke="#121212" stroke-linecap="butt" stroke-linejoin="round" stroke-width="4"/>
        </g>
        <g id="Graphic_83">
          <path d="M 1354 -968 L 1548 -968 C 1549.6569 -968 1551 -966.6569 1551 -965 L 1551 -939 C 1551 -937.3431 1549.6569 -936 1548 -936 L 1354 -936 C 1352.3431 -936 1351 -937.3431 1351 -939 L 1351 -965 C 1351 -966.6569 1352.3431 -968 1354 -968 Z" fill="#eccb8b"/>
          <path d="M 1354 -968 L 1548 -968 C 1549.6569 -968 1551 -966.6569 1551 -965 L 1551 -939 C 1551 -937.3431 1549.6569 -936 1548 -936 L 1354 -936 C 1352.3431 -936 1351 -937.3431 1351 -939 L 1351 -965 C 1351 -966.6569 1352.3431 -968 1354 -968 Z" stroke="#2d3440" stroke-linecap="round" stroke-linejoin="round" stroke-width="1"/>
          <text transform="translate(1356 -973.02)" fill="#2d3440">
            <tspan font-family="JuliaMono" font-size="24" fill="#2d3440" x="44.6" y="29">Frame C</tspan>
          </text>
        </g>
        <g id="Line_82">
          <line x1="1451" y1="-1028" x2="1451" y2="-980.5" marker-end="url(#FilledArrow_Marker)" stroke="#121212" stroke-linecap="butt" stroke-linejoin="round" stroke-width="4"/>
        </g>
        <g id="Graphic_81">
          <text transform="translate(1457.4184 -1109.9669)" fill="black">
            <tspan font-family="JuliaMono" font-size="16" fill="black" x="0" y="19">2</tspan>
          </text>
        </g>
        <g id="Graphic_80">
          <text transform="translate(1457.4184 -1017.9669)" fill="black">
            <tspan font-family="JuliaMono" font-size="16" fill="black" x="0" y="19">2</tspan>
          </text>
        </g>
        <g id="Graphic_79">
          <path d="M 1354 -876 L 1548 -876 C 1549.6569 -876 1551 -874.6569 1551 -873 L 1551 -847 C 1551 -845.3431 1549.6569 -844 1548 -844 L 1354 -844 C 1352.3431 -844 1351 -845.3431 1351 -847 L 1351 -873 C 1351 -874.6569 1352.3431 -876 1354 -876 Z" fill="#d18770"/>
          <path d="M 1354 -876 L 1548 -876 C 1549.6569 -876 1551 -874.6569 1551 -873 L 1551 -847 C 1551 -845.3431 1549.6569 -844 1548 -844 L 1354 -844 C 1352.3431 -844 1351 -845.3431 1351 -847 L 1351 -873 C 1351 -874.6569 1352.3431 -876 1354 -876 Z" stroke="#2d3440" stroke-linecap="round" stroke-linejoin="round" stroke-width="1"/>
          <text transform="translate(1356 -881.02)" fill="#2d3440">
            <tspan font-family="JuliaMono" font-size="24" fill="#2d3440" x="44.6" y="29">Frame D</tspan>
          </text>
        </g>
        <g id="Line_78">
          <line x1="1451" y1="-936" x2="1451" y2="-888.9" marker-end="url(#FilledArrow_Marker_2)" stroke="#121212" stroke-linecap="butt" stroke-linejoin="round" stroke-width="2"/>
        </g>
        <g id="Graphic_77">
          <text transform="translate(1457.4184 -925.9669)" fill="black">
            <tspan font-family="JuliaMono" font-size="16" fill="black" x="0" y="19">1</tspan>
          </text>
        </g>
      </g>
    </g>
  </g>
</svg>
