<?xml version="1.0" encoding="UTF-8" standalone="no"?>
<!DOCTYPE svg PUBLIC "-//W3C//DTD SVG 1.1//EN" "http://www.w3.org/Graphics/SVG/1.1/DTD/svg11.dtd">
<svg version="1.1" xmlns="http://www.w3.org/2000/svg" xmlns:xl="http://www.w3.org/1999/xlink" xmlns:dc="http://purl.org/dc/elements/1.1/" viewBox="871.5 -1168.02 205 133.52" width="205" height="133.52">
  <defs>
    <marker orient="auto" overflow="visible" markerUnits="strokeWidth" id="FilledArrow_Marker" stroke-linejoin="miter" stroke-miterlimit="10" viewBox="-1 -3 7 6" markerWidth="7" markerHeight="6" color="#121212">
      <g>
        <path d="M 4.8 0 L 0 -1.8 L 0 1.8 Z" fill="currentColor" stroke="currentColor" stroke-width="1"/>
      </g>
    </marker>
  </defs>
  <g id="CSTG_Description" stroke="none" fill-opacity="1" stroke-opacity="1" stroke-dasharray="none" fill="none">
    <title>CSTG Description</title>
    <g id="CSTG_Description_Layer_1">
      <title>Layer 1</title>
      <g id="Group_292">
        <g id="Graphic_46">
          <path d="M 877 -1161 L 1071 -1161 C 1072.6569 -1161 1074 -1159.6569 1074 -1158 L 1074 -1132 C 1074 -1130.3431 1072.6569 -1129 1071 -1129 L 877 -1129 C 875.3431 -1129 874 -1130.3431 874 -1132 L 874 -1158 C 874 -1159.6569 875.3431 -1161 877 -1161 Z" fill="#b48ead"/>
          <path d="M 877 -1161 L 1071 -1161 C 1072.6569 -1161 1074 -1159.6569 1074 -1158 L 1074 -1132 C 1074 -1130.3431 1072.6569 -1129 1071 -1129 L 877 -1129 C 875.3431 -1129 874 -1130.3431 874 -1132 L 874 -1158 C 874 -1159.6569 875.3431 -1161 877 -1161 Z" stroke="#2d3440" stroke-linecap="round" stroke-linejoin="round" stroke-width="1"/>
          <text transform="translate(879 -1166.02)" fill="#2d3440">
            <tspan font-family="JuliaMono" font-size="24" fill="#2d3440" x="44.6" y="29">Frame A</tspan>
          </text>
        </g>
        <g id="Graphic_47">
          <path d="M 877 -1069 L 1071 -1069 C 1072.6569 -1069 1074 -1067.6569 1074 -1066 L 1074 -1040 C 1074 -1038.3431 1072.6569 -1037 1071 -1037 L 877 -1037 C 875.3431 -1037 874 -1038.3431 874 -1040 L 874 -1066 C 874 -1067.6569 875.3431 -1069 877 -1069 Z" fill="#a3be8c"/>
          <path d="M 877 -1069 L 1071 -1069 C 1072.6569 -1069 1074 -1067.6569 1074 -1066 L 1074 -1040 C 1074 -1038.3431 1072.6569 -1037 1071 -1037 L 877 -1037 C 875.3431 -1037 874 -1038.3431 874 -1040 L 874 -1066 C 874 -1067.6569 875.3431 -1069 877 -1069 Z" stroke="#2d3440" stroke-linecap="round" stroke-linejoin="round" stroke-width="1"/>
          <text transform="translate(879 -1074.02)" fill="#2d3440">
            <tspan font-family="JuliaMono" font-size="24" fill="#2d3440" x="44.6" y="29">Frame B</tspan>
          </text>
        </g>
        <g id="Line_48">
          <line x1="974" y1="-1129" x2="974" y2="-1081.9" marker-end="url(#FilledArrow_Marker)" stroke="#121212" stroke-linecap="butt" stroke-linejoin="round" stroke-width="2"/>
        </g>
        <g id="Graphic_49">
          <text transform="translate(980.4184 -1118.9669)" fill="black">
            <tspan font-family="JuliaMono" font-size="16" fill="black" x="0" y="19">1</tspan>
          </text>
        </g>
      </g>
    </g>
  </g>
</svg>
