<?xml version="1.0" encoding="UTF-8" standalone="no"?>
<!DOCTYPE svg PUBLIC "-//W3C//DTD SVG 1.1//EN" "http://www.w3.org/Graphics/SVG/1.1/DTD/svg11.dtd">
<svg version="1.1" xmlns="http://www.w3.org/2000/svg" xmlns:xl="http://www.w3.org/1999/xlink" xmlns:dc="http://purl.org/dc/elements/1.1/" viewBox="1930.5 -769.02 445 317.52" width="445" height="317.52">
  <defs>
    <marker orient="auto" overflow="visible" markerUnits="strokeWidth" id="FilledArrow_Marker" stroke-linejoin="miter" stroke-miterlimit="10" viewBox="-1 -2 4 4" markerWidth="4" markerHeight="4" color="#121212">
      <g>
        <path d="M 1.0666667 0 L 0 -.4 L 0 .4 Z" fill="currentColor" stroke="currentColor" stroke-width="1"/>
      </g>
    </marker>
    <marker orient="auto" overflow="visible" markerUnits="strokeWidth" id="FilledArrow_Marker_2" stroke-linejoin="miter" stroke-miterlimit="10" viewBox="-1 -2 4 4" markerWidth="4" markerHeight="4" color="#121212">
      <g>
        <path d="M 1.6 0 L 0 -.6 L 0 .6 Z" fill="currentColor" stroke="currentColor" stroke-width="1"/>
      </g>
    </marker>
    <marker orient="auto" overflow="visible" markerUnits="strokeWidth" id="FilledArrow_Marker_3" stroke-linejoin="miter" stroke-miterlimit="10" viewBox="-1 -3 7 6" markerWidth="7" markerHeight="6" color="#121212">
      <g>
        <path d="M 4.8 0 L 0 -1.8 L 0 1.8 Z" fill="currentColor" stroke="currentColor" stroke-width="1"/>
      </g>
    </marker>
  </defs>
  <g id="CSTG_Description" stroke="none" fill-opacity="1" stroke-opacity="1" stroke-dasharray="none" fill="none">
    <title>CSTG Description</title>
    <g id="CSTG_Description_Layer_1">
      <title>Layer 1</title>
      <g id="Group_299">
        <g id="Graphic_149">
          <path d="M 1936 -762 L 2130 -762 C 2131.6569 -762 2133 -760.65685 2133 -759 L 2133 -733 C 2133 -731.34315 2131.6569 -730 2130 -730 L 1936 -730 C 1934.3431 -730 1933 -731.34315 1933 -733 L 1933 -759 C 1933 -760.65685 1934.3431 -762 1936 -762 Z" fill="#b48ead"/>
          <path d="M 1936 -762 L 2130 -762 C 2131.6569 -762 2133 -760.65685 2133 -759 L 2133 -733 C 2133 -731.34315 2131.6569 -730 2130 -730 L 1936 -730 C 1934.3431 -730 1933 -731.34315 1933 -733 L 1933 -759 C 1933 -760.65685 1934.3431 -762 1936 -762 Z" stroke="#2d3440" stroke-linecap="round" stroke-linejoin="round" stroke-width="1"/>
          <text transform="translate(1938 -767.02)" fill="#2d3440">
            <tspan font-family="JuliaMono" font-size="24" fill="#2d3440" x="44.6" y="29">Frame A</tspan>
          </text>
        </g>
        <g id="Graphic_148">
          <path d="M 1936 -670 L 2130 -670 C 2131.6569 -670 2133 -668.65685 2133 -667 L 2133 -641 C 2133 -639.34315 2131.6569 -638 2130 -638 L 1936 -638 C 1934.3431 -638 1933 -639.34315 1933 -641 L 1933 -667 C 1933 -668.65685 1934.3431 -670 1936 -670 Z" fill="#a3be8c"/>
          <path d="M 1936 -670 L 2130 -670 C 2131.6569 -670 2133 -668.65685 2133 -667 L 2133 -641 C 2133 -639.34315 2131.6569 -638 2130 -638 L 1936 -638 C 1934.3431 -638 1933 -639.34315 1933 -641 L 1933 -667 C 1933 -668.65685 1934.3431 -670 1936 -670 Z" stroke="#2d3440" stroke-linecap="round" stroke-linejoin="round" stroke-width="1"/>
          <text transform="translate(1938 -675.02)" fill="#2d3440">
            <tspan font-family="JuliaMono" font-size="24" fill="#2d3440" x="44.6" y="29">Frame B</tspan>
          </text>
        </g>
        <g id="Line_147">
          <line x1="2033" y1="-730" x2="2033" y2="-685.3" marker-end="url(#FilledArrow_Marker)" stroke="#121212" stroke-linecap="butt" stroke-linejoin="round" stroke-width="6"/>
        </g>
        <g id="Graphic_146">
          <path d="M 1936 -578 L 2130 -578 C 2131.6569 -578 2133 -576.65685 2133 -575 L 2133 -549 C 2133 -547.34315 2131.6569 -546 2130 -546 L 1936 -546 C 1934.3431 -546 1933 -547.34315 1933 -549 L 1933 -575 C 1933 -576.65685 1934.3431 -578 1936 -578 Z" fill="#eccb8b"/>
          <path d="M 1936 -578 L 2130 -578 C 2131.6569 -578 2133 -576.65685 2133 -575 L 2133 -549 C 2133 -547.34315 2131.6569 -546 2130 -546 L 1936 -546 C 1934.3431 -546 1933 -547.34315 1933 -549 L 1933 -575 C 1933 -576.65685 1934.3431 -578 1936 -578 Z" stroke="#2d3440" stroke-linecap="round" stroke-linejoin="round" stroke-width="1"/>
          <text transform="translate(1938 -583.02)" fill="#2d3440">
            <tspan font-family="JuliaMono" font-size="24" fill="#2d3440" x="44.6" y="29">Frame C</tspan>
          </text>
        </g>
        <g id="Line_145">
          <line x1="2033" y1="-638" x2="2033" y2="-590.5" marker-end="url(#FilledArrow_Marker_2)" stroke="#121212" stroke-linecap="butt" stroke-linejoin="round" stroke-width="4"/>
        </g>
        <g id="Graphic_144">
          <text transform="translate(2039.4184 -719.96686)" fill="black">
            <tspan font-family="JuliaMono" font-size="16" fill="black" x="0" y="19">3</tspan>
          </text>
        </g>
        <g id="Graphic_143">
          <text transform="translate(2039.4184 -627.96686)" fill="black">
            <tspan font-family="JuliaMono" font-size="16" fill="black" x="0" y="19">2</tspan>
          </text>
        </g>
        <g id="Graphic_142">
          <path d="M 1936 -486 L 2130 -486 C 2131.6569 -486 2133 -484.65685 2133 -483 L 2133 -457 C 2133 -455.34315 2131.6569 -454 2130 -454 L 1936 -454 C 1934.3431 -454 1933 -455.34315 1933 -457 L 1933 -483 C 1933 -484.65685 1934.3431 -486 1936 -486 Z" fill="#d18770"/>
          <path d="M 1936 -486 L 2130 -486 C 2131.6569 -486 2133 -484.65685 2133 -483 L 2133 -457 C 2133 -455.34315 2131.6569 -454 2130 -454 L 1936 -454 C 1934.3431 -454 1933 -455.34315 1933 -457 L 1933 -483 C 1933 -484.65685 1934.3431 -486 1936 -486 Z" stroke="#2d3440" stroke-linecap="round" stroke-linejoin="round" stroke-width="1"/>
          <text transform="translate(1938 -491.02)" fill="#2d3440">
            <tspan font-family="JuliaMono" font-size="24" fill="#2d3440" x="44.6" y="29">Frame D</tspan>
          </text>
        </g>
        <g id="Line_141">
          <line x1="2033" y1="-546" x2="2033" y2="-498.5" marker-end="url(#FilledArrow_Marker_2)" stroke="#121212" stroke-linecap="butt" stroke-linejoin="round" stroke-width="4"/>
        </g>
        <g id="Graphic_140">
          <text transform="translate(2039.4184 -535.96686)" fill="black">
            <tspan font-family="JuliaMono" font-size="16" fill="black" x="0" y="19">2</tspan>
          </text>
        </g>
        <g id="Graphic_150">
          <path d="M 2176 -578 L 2370 -578 C 2371.6569 -578 2373 -576.65685 2373 -575 L 2373 -549 C 2373 -547.34315 2371.6569 -546 2370 -546 L 2176 -546 C 2174.3431 -546 2173 -547.34315 2173 -549 L 2173 -575 C 2173 -576.65685 2174.3431 -578 2176 -578 Z" fill="#5d81ac"/>
          <path d="M 2176 -578 L 2370 -578 C 2371.6569 -578 2373 -576.65685 2373 -575 L 2373 -549 C 2373 -547.34315 2371.6569 -546 2370 -546 L 2176 -546 C 2174.3431 -546 2173 -547.34315 2173 -549 L 2173 -575 C 2173 -576.65685 2174.3431 -578 2176 -578 Z" stroke="#2d3440" stroke-linecap="round" stroke-linejoin="round" stroke-width="1"/>
          <text transform="translate(2178 -583.02)" fill="#2d3440">
            <tspan font-family="JuliaMono" font-size="24" fill="#2d3440" x="44.6" y="29">Frame E</tspan>
          </text>
        </g>
        <g id="Line_152">
          <line x1="2083" y1="-638" x2="2211.143" y2="-583.08156" marker-end="url(#FilledArrow_Marker_3)" stroke="#121212" stroke-linecap="butt" stroke-linejoin="round" stroke-width="2"/>
        </g>
        <g id="Graphic_153">
          <text transform="translate(2132.8632 -638.2782)" fill="black">
            <tspan font-family="JuliaMono" font-size="16" fill="black" x="0" y="19">1</tspan>
          </text>
        </g>
      </g>
    </g>
  </g>
</svg>
