<?xml version="1.0" encoding="UTF-8" standalone="no"?>
<!DOCTYPE svg PUBLIC "-//W3C//DTD SVG 1.1//EN" "http://www.w3.org/Graphics/SVG/1.1/DTD/svg11.dtd">
<svg version="1.1" xmlns="http://www.w3.org/2000/svg" xmlns:xl="http://www.w3.org/1999/xlink" xmlns:dc="http://purl.org/dc/elements/1.1/" viewBox="394.5 -1201.02 205 959.52" width="205" height="959.52">
  <defs/>
  <g id="CSTG_Description" stroke="none" fill-opacity="1" stroke-opacity="1" stroke-dasharray="none" fill="none">
    <title>CSTG Description</title>
    <g id="CSTG_Description_Layer_1">
      <title>Layer 1</title>
      <g id="Group_291">
        <g id="Graphic_2">
          <path d="M 400 -996 L 594 -996 C 595.65685 -996 597 -994.6569 597 -993 L 597 -967 C 597 -965.3431 595.65685 -964 594 -964 L 400 -964 C 398.34315 -964 397 -965.3431 397 -967 L 397 -993 C 397 -994.6569 398.34315 -996 400 -996 Z" fill="#b48ead"/>
          <path d="M 400 -996 L 594 -996 C 595.65685 -996 597 -994.6569 597 -993 L 597 -967 C 597 -965.3431 595.65685 -964 594 -964 L 400 -964 C 398.34315 -964 397 -965.3431 397 -967 L 397 -993 C 397 -994.6569 398.34315 -996 400 -996 Z" stroke="#2d3440" stroke-linecap="round" stroke-linejoin="round" stroke-width="1"/>
          <text transform="translate(402 -1001.02)" fill="#2d3440">
            <tspan font-family="JuliaMono" font-size="24" fill="#2d3440" x="44.6" y="29">Frame A</tspan>
          </text>
        </g>
        <g id="Graphic_3">
          <path d="M 400 -954 L 594 -954 C 595.65685 -954 597 -952.6569 597 -951 L 597 -925 C 597 -923.3431 595.65685 -922 594 -922 L 400 -922 C 398.34315 -922 397 -923.3431 397 -925 L 397 -951 C 397 -952.6569 398.34315 -954 400 -954 Z" fill="#a3be8c"/>
          <path d="M 400 -954 L 594 -954 C 595.65685 -954 597 -952.6569 597 -951 L 597 -925 C 597 -923.3431 595.65685 -922 594 -922 L 400 -922 C 398.34315 -922 397 -923.3431 397 -925 L 397 -951 C 397 -952.6569 398.34315 -954 400 -954 Z" stroke="#2d3440" stroke-linecap="round" stroke-linejoin="round" stroke-width="1"/>
          <text transform="translate(402 -959.02)" fill="#2d3440">
            <tspan font-family="JuliaMono" font-size="24" fill="#2d3440" x="44.6" y="29">Frame B</tspan>
          </text>
        </g>
        <g id="Graphic_4">
          <path d="M 400 -912 L 594 -912 C 595.65685 -912 597 -910.6569 597 -909 L 597 -883 C 597 -881.3431 595.65685 -880 594 -880 L 400 -880 C 398.34315 -880 397 -881.3431 397 -883 L 397 -909 C 397 -910.6569 398.34315 -912 400 -912 Z" fill="#eccb8b"/>
          <path d="M 400 -912 L 594 -912 C 595.65685 -912 597 -910.6569 597 -909 L 597 -883 C 597 -881.3431 595.65685 -880 594 -880 L 400 -880 C 398.34315 -880 397 -881.3431 397 -883 L 397 -909 C 397 -910.6569 398.34315 -912 400 -912 Z" stroke="#2d3440" stroke-linecap="round" stroke-linejoin="round" stroke-width="1"/>
          <text transform="translate(402 -917.02)" fill="#2d3440">
            <tspan font-family="JuliaMono" font-size="24" fill="#2d3440" x="44.6" y="29">Frame C</tspan>
          </text>
        </g>
        <g id="Graphic_5">
          <path d="M 400 -870 L 594 -870 C 595.65685 -870 597 -868.6569 597 -867 L 597 -841 C 597 -839.3431 595.65685 -838 594 -838 L 400 -838 C 398.34315 -838 397 -839.3431 397 -841 L 397 -867 C 397 -868.6569 398.34315 -870 400 -870 Z" fill="#d18770"/>
          <path d="M 400 -870 L 594 -870 C 595.65685 -870 597 -868.6569 597 -867 L 597 -841 C 597 -839.3431 595.65685 -838 594 -838 L 400 -838 C 398.34315 -838 397 -839.3431 397 -841 L 397 -867 C 397 -868.6569 398.34315 -870 400 -870 Z" stroke="#2d3440" stroke-linecap="round" stroke-linejoin="round" stroke-width="1"/>
          <text transform="translate(402 -875.02)" fill="#2d3440">
            <tspan font-family="JuliaMono" font-size="24" fill="#2d3440" x="44.6" y="29">Frame D</tspan>
          </text>
        </g>
        <g id="Graphic_6">
          <path d="M 400 -798 L 594 -798 C 595.65685 -798 597 -796.6569 597 -795 L 597 -769 C 597 -767.34315 595.65685 -766 594 -766 L 400 -766 C 398.34315 -766 397 -767.34315 397 -769 L 397 -795 C 397 -796.6569 398.34315 -798 400 -798 Z" fill="#b48ead"/>
          <path d="M 400 -798 L 594 -798 C 595.65685 -798 597 -796.6569 597 -795 L 597 -769 C 597 -767.34315 595.65685 -766 594 -766 L 400 -766 C 398.34315 -766 397 -767.34315 397 -769 L 397 -795 C 397 -796.6569 398.34315 -798 400 -798 Z" stroke="#2d3440" stroke-linecap="round" stroke-linejoin="round" stroke-width="1"/>
          <text transform="translate(402 -803.02)" fill="#2d3440">
            <tspan font-family="JuliaMono" font-size="24" fill="#2d3440" x="44.6" y="29">Frame A</tspan>
          </text>
        </g>
        <g id="Graphic_7">
          <path d="M 400 -756 L 594 -756 C 595.65685 -756 597 -754.65685 597 -753 L 597 -727 C 597 -725.34315 595.65685 -724 594 -724 L 400 -724 C 398.34315 -724 397 -725.34315 397 -727 L 397 -753 C 397 -754.65685 398.34315 -756 400 -756 Z" fill="#a3be8c"/>
          <path d="M 400 -756 L 594 -756 C 595.65685 -756 597 -754.65685 597 -753 L 597 -727 C 597 -725.34315 595.65685 -724 594 -724 L 400 -724 C 398.34315 -724 397 -725.34315 397 -727 L 397 -753 C 397 -754.65685 398.34315 -756 400 -756 Z" stroke="#2d3440" stroke-linecap="round" stroke-linejoin="round" stroke-width="1"/>
          <text transform="translate(402 -761.02)" fill="#2d3440">
            <tspan font-family="JuliaMono" font-size="24" fill="#2d3440" x="44.6" y="29">Frame B</tspan>
          </text>
        </g>
        <g id="Graphic_8">
          <path d="M 400 -714 L 594 -714 C 595.65685 -714 597 -712.65685 597 -711 L 597 -685 C 597 -683.34315 595.65685 -682 594 -682 L 400 -682 C 398.34315 -682 397 -683.34315 397 -685 L 397 -711 C 397 -712.65685 398.34315 -714 400 -714 Z" fill="#5d81ac"/>
          <path d="M 400 -714 L 594 -714 C 595.65685 -714 597 -712.65685 597 -711 L 597 -685 C 597 -683.34315 595.65685 -682 594 -682 L 400 -682 C 398.34315 -682 397 -683.34315 397 -685 L 397 -711 C 397 -712.65685 398.34315 -714 400 -714 Z" stroke="#2d3440" stroke-linecap="round" stroke-linejoin="round" stroke-width="1"/>
          <text transform="translate(402 -719.02)" fill="#2d3440">
            <tspan font-family="JuliaMono" font-size="24" fill="#2d3440" x="44.6" y="29">Frame E</tspan>
          </text>
        </g>
        <g id="Graphic_9">
          <path d="M 400 -672 L 594 -672 C 595.65685 -672 597 -670.65685 597 -669 L 597 -643 C 597 -641.34315 595.65685 -640 594 -640 L 400 -640 C 398.34315 -640 397 -641.34315 397 -643 L 397 -669 C 397 -670.65685 398.34315 -672 400 -672 Z" fill="#88c1d0"/>
          <path d="M 400 -672 L 594 -672 C 595.65685 -672 597 -670.65685 597 -669 L 597 -643 C 597 -641.34315 595.65685 -640 594 -640 L 400 -640 C 398.34315 -640 397 -641.34315 397 -643 L 397 -669 C 397 -670.65685 398.34315 -672 400 -672 Z" stroke="#2d3440" stroke-linecap="round" stroke-linejoin="round" stroke-width="1"/>
          <text transform="translate(402 -677.02)" fill="#2d3440">
            <tspan font-family="JuliaMono" font-size="24" fill="#2d3440" x="44.6" y="29">Frame F</tspan>
          </text>
        </g>
        <g id="Graphic_10">
          <path d="M 400 -402 L 594 -402 C 595.65685 -402 597 -400.65685 597 -399 L 597 -373 C 597 -371.34315 595.65685 -370 594 -370 L 400 -370 C 398.34315 -370 397 -371.34315 397 -373 L 397 -399 C 397 -400.65685 398.34315 -402 400 -402 Z" fill="#b48ead"/>
          <path d="M 400 -402 L 594 -402 C 595.65685 -402 597 -400.65685 597 -399 L 597 -373 C 597 -371.34315 595.65685 -370 594 -370 L 400 -370 C 398.34315 -370 397 -371.34315 397 -373 L 397 -399 C 397 -400.65685 398.34315 -402 400 -402 Z" stroke="#2d3440" stroke-linecap="round" stroke-linejoin="round" stroke-width="1"/>
          <text transform="translate(402 -407.02)" fill="#2d3440">
            <tspan font-family="JuliaMono" font-size="24" fill="#2d3440" x="44.6" y="29">Frame A</tspan>
          </text>
        </g>
        <g id="Graphic_13">
          <path d="M 400 -360 L 594 -360 C 595.65685 -360 597 -358.65685 597 -357 L 597 -331 C 597 -329.34315 595.65685 -328 594 -328 L 400 -328 C 398.34315 -328 397 -329.34315 397 -331 L 397 -357 C 397 -358.65685 398.34315 -360 400 -360 Z" fill="#bf616a"/>
          <path d="M 400 -360 L 594 -360 C 595.65685 -360 597 -358.65685 597 -357 L 597 -331 C 597 -329.34315 595.65685 -328 594 -328 L 400 -328 C 398.34315 -328 397 -329.34315 397 -331 L 397 -357 C 397 -358.65685 398.34315 -360 400 -360 Z" stroke="#2d3440" stroke-linecap="round" stroke-linejoin="round" stroke-width="1"/>
          <text transform="translate(402 -365.02)" fill="#2d3440">
            <tspan font-family="JuliaMono" font-size="24" fill="#2d3440" x="44.6" y="29">Frame G</tspan>
          </text>
        </g>
        <g id="Graphic_12">
          <path d="M 400 -318 L 594 -318 C 595.65685 -318 597 -316.65685 597 -315 L 597 -289 C 597 -287.34315 595.65685 -286 594 -286 L 400 -286 C 398.34315 -286 397 -287.34315 397 -289 L 397 -315 C 397 -316.65685 398.34315 -318 400 -318 Z" fill="#5d81ac"/>
          <path d="M 400 -318 L 594 -318 C 595.65685 -318 597 -316.65685 597 -315 L 597 -289 C 597 -287.34315 595.65685 -286 594 -286 L 400 -286 C 398.34315 -286 397 -287.34315 397 -289 L 397 -315 C 397 -316.65685 398.34315 -318 400 -318 Z" stroke="#2d3440" stroke-linecap="round" stroke-linejoin="round" stroke-width="1"/>
          <text transform="translate(402 -323.02)" fill="#2d3440">
            <tspan font-family="JuliaMono" font-size="24" fill="#2d3440" x="44.6" y="29">Frame E</tspan>
          </text>
        </g>
        <g id="Graphic_11">
          <path d="M 400 -276 L 594 -276 C 595.65685 -276 597 -274.65685 597 -273 L 597 -247 C 597 -245.34315 595.65685 -244 594 -244 L 400 -244 C 398.34315 -244 397 -245.34315 397 -247 L 397 -273 C 397 -274.65685 398.34315 -276 400 -276 Z" fill="#88c1d0"/>
          <path d="M 400 -276 L 594 -276 C 595.65685 -276 597 -274.65685 597 -273 L 597 -247 C 597 -245.34315 595.65685 -244 594 -244 L 400 -244 C 398.34315 -244 397 -245.34315 397 -247 L 397 -273 C 397 -274.65685 398.34315 -276 400 -276 Z" stroke="#2d3440" stroke-linecap="round" stroke-linejoin="round" stroke-width="1"/>
          <text transform="translate(402 -281.02)" fill="#2d3440">
            <tspan font-family="JuliaMono" font-size="24" fill="#2d3440" x="44.6" y="29">Frame F</tspan>
          </text>
        </g>
        <g id="Graphic_17">
          <path d="M 400 -1194 L 594 -1194 C 595.65685 -1194 597 -1192.6569 597 -1191 L 597 -1165 C 597 -1163.3431 595.65685 -1162 594 -1162 L 400 -1162 C 398.34315 -1162 397 -1163.3431 397 -1165 L 397 -1191 C 397 -1192.6569 398.34315 -1194 400 -1194 Z" fill="#b48ead"/>
          <path d="M 400 -1194 L 594 -1194 C 595.65685 -1194 597 -1192.6569 597 -1191 L 597 -1165 C 597 -1163.3431 595.65685 -1162 594 -1162 L 400 -1162 C 398.34315 -1162 397 -1163.3431 397 -1165 L 397 -1191 C 397 -1192.6569 398.34315 -1194 400 -1194 Z" stroke="#2d3440" stroke-linecap="round" stroke-linejoin="round" stroke-width="1"/>
          <text transform="translate(402 -1199.02)" fill="#2d3440">
            <tspan font-family="JuliaMono" font-size="24" fill="#2d3440" x="44.6" y="29">Frame A</tspan>
          </text>
        </g>
        <g id="Graphic_16">
          <path d="M 400 -1152 L 594 -1152 C 595.65685 -1152 597 -1150.6569 597 -1149 L 597 -1123 C 597 -1121.3431 595.65685 -1120 594 -1120 L 400 -1120 C 398.34315 -1120 397 -1121.3431 397 -1123 L 397 -1149 C 397 -1150.6569 398.34315 -1152 400 -1152 Z" fill="#a3be8c"/>
          <path d="M 400 -1152 L 594 -1152 C 595.65685 -1152 597 -1150.6569 597 -1149 L 597 -1123 C 597 -1121.3431 595.65685 -1120 594 -1120 L 400 -1120 C 398.34315 -1120 397 -1121.3431 397 -1123 L 397 -1149 C 397 -1150.6569 398.34315 -1152 400 -1152 Z" stroke="#2d3440" stroke-linecap="round" stroke-linejoin="round" stroke-width="1"/>
          <text transform="translate(402 -1157.02)" fill="#2d3440">
            <tspan font-family="JuliaMono" font-size="24" fill="#2d3440" x="44.6" y="29">Frame B</tspan>
          </text>
        </g>
        <g id="Graphic_15">
          <path d="M 400 -1110 L 594 -1110 C 595.65685 -1110 597 -1108.6569 597 -1107 L 597 -1081 C 597 -1079.3431 595.65685 -1078 594 -1078 L 400 -1078 C 398.34315 -1078 397 -1079.3431 397 -1081 L 397 -1107 C 397 -1108.6569 398.34315 -1110 400 -1110 Z" fill="#eccb8b"/>
          <path d="M 400 -1110 L 594 -1110 C 595.65685 -1110 597 -1108.6569 597 -1107 L 597 -1081 C 597 -1079.3431 595.65685 -1078 594 -1078 L 400 -1078 C 398.34315 -1078 397 -1079.3431 397 -1081 L 397 -1107 C 397 -1108.6569 398.34315 -1110 400 -1110 Z" stroke="#2d3440" stroke-linecap="round" stroke-linejoin="round" stroke-width="1"/>
          <text transform="translate(402 -1115.02)" fill="#2d3440">
            <tspan font-family="JuliaMono" font-size="24" fill="#2d3440" x="44.6" y="29">Frame C</tspan>
          </text>
        </g>
        <g id="Graphic_14">
          <path d="M 400 -1068 L 594 -1068 C 595.65685 -1068 597 -1066.6569 597 -1065 L 597 -1039 C 597 -1037.3431 595.65685 -1036 594 -1036 L 400 -1036 C 398.34315 -1036 397 -1037.3431 397 -1039 L 397 -1065 C 397 -1066.6569 398.34315 -1068 400 -1068 Z" fill="#d18770"/>
          <path d="M 400 -1068 L 594 -1068 C 595.65685 -1068 597 -1066.6569 597 -1065 L 597 -1039 C 597 -1037.3431 595.65685 -1036 594 -1036 L 400 -1036 C 398.34315 -1036 397 -1037.3431 397 -1039 L 397 -1065 C 397 -1066.6569 398.34315 -1068 400 -1068 Z" stroke="#2d3440" stroke-linecap="round" stroke-linejoin="round" stroke-width="1"/>
          <text transform="translate(402 -1073.02)" fill="#2d3440">
            <tspan font-family="JuliaMono" font-size="24" fill="#2d3440" x="44.6" y="29">Frame D</tspan>
          </text>
        </g>
        <g id="Graphic_37">
          <path d="M 400 -600 L 594 -600 C 595.65685 -600 597 -598.65685 597 -597 L 597 -571 C 597 -569.34315 595.65685 -568 594 -568 L 400 -568 C 398.34315 -568 397 -569.34315 397 -571 L 397 -597 C 397 -598.65685 398.34315 -600 400 -600 Z" fill="#b48ead"/>
          <path d="M 400 -600 L 594 -600 C 595.65685 -600 597 -598.65685 597 -597 L 597 -571 C 597 -569.34315 595.65685 -568 594 -568 L 400 -568 C 398.34315 -568 397 -569.34315 397 -571 L 397 -597 C 397 -598.65685 398.34315 -600 400 -600 Z" stroke="#2d3440" stroke-linecap="round" stroke-linejoin="round" stroke-width="1"/>
          <text transform="translate(402 -605.02)" fill="#2d3440">
            <tspan font-family="JuliaMono" font-size="24" fill="#2d3440" x="44.6" y="29">Frame A</tspan>
          </text>
        </g>
        <g id="Graphic_36">
          <path d="M 400 -558 L 594 -558 C 595.65685 -558 597 -556.65685 597 -555 L 597 -529 C 597 -527.34315 595.65685 -526 594 -526 L 400 -526 C 398.34315 -526 397 -527.34315 397 -529 L 397 -555 C 397 -556.65685 398.34315 -558 400 -558 Z" fill="#a3be8c"/>
          <path d="M 400 -558 L 594 -558 C 595.65685 -558 597 -556.65685 597 -555 L 597 -529 C 597 -527.34315 595.65685 -526 594 -526 L 400 -526 C 398.34315 -526 397 -527.34315 397 -529 L 397 -555 C 397 -556.65685 398.34315 -558 400 -558 Z" stroke="#2d3440" stroke-linecap="round" stroke-linejoin="round" stroke-width="1"/>
          <text transform="translate(402 -563.02)" fill="#2d3440">
            <tspan font-family="JuliaMono" font-size="24" fill="#2d3440" x="44.6" y="29">Frame B</tspan>
          </text>
        </g>
        <g id="Graphic_35">
          <path d="M 400 -516 L 594 -516 C 595.65685 -516 597 -514.65685 597 -513 L 597 -487 C 597 -485.34315 595.65685 -484 594 -484 L 400 -484 C 398.34315 -484 397 -485.34315 397 -487 L 397 -513 C 397 -514.65685 398.34315 -516 400 -516 Z" fill="#5d81ac"/>
          <path d="M 400 -516 L 594 -516 C 595.65685 -516 597 -514.65685 597 -513 L 597 -487 C 597 -485.34315 595.65685 -484 594 -484 L 400 -484 C 398.34315 -484 397 -485.34315 397 -487 L 397 -513 C 397 -514.65685 398.34315 -516 400 -516 Z" stroke="#2d3440" stroke-linecap="round" stroke-linejoin="round" stroke-width="1"/>
          <text transform="translate(402 -521.02)" fill="#2d3440">
            <tspan font-family="JuliaMono" font-size="24" fill="#2d3440" x="44.6" y="29">Frame E</tspan>
          </text>
        </g>
        <g id="Graphic_38">
          <path d="M 400 -474 L 594 -474 C 595.65685 -474 597 -472.65685 597 -471 L 597 -445 C 597 -443.34315 595.65685 -442 594 -442 L 400 -442 C 398.34315 -442 397 -443.34315 397 -445 L 397 -471 C 397 -472.65685 398.34315 -474 400 -474 Z" fill="#d18770"/>
          <path d="M 400 -474 L 594 -474 C 595.65685 -474 597 -472.65685 597 -471 L 597 -445 C 597 -443.34315 595.65685 -442 594 -442 L 400 -442 C 398.34315 -442 397 -443.34315 397 -445 L 397 -471 C 397 -472.65685 398.34315 -474 400 -474 Z" stroke="#2d3440" stroke-linecap="round" stroke-linejoin="round" stroke-width="1"/>
          <text transform="translate(402 -479.02)" fill="#2d3440">
            <tspan font-family="JuliaMono" font-size="24" fill="#2d3440" x="44.6" y="29">Frame D</tspan>
          </text>
        </g>
      </g>
    </g>
  </g>
</svg>
