<?xml version="1.0" encoding="UTF-8" standalone="no"?>
<!DOCTYPE svg PUBLIC "-//W3C//DTD SVG 1.1//EN" "http://www.w3.org/Graphics/SVG/1.1/DTD/svg11.dtd">
<svg xmlns="http://www.w3.org/2000/svg" xmlns:xl="http://www.w3.org/1999/xlink" version="1.1" xmlns:dc="http://purl.org/dc/elements/1.1/" viewBox="1098.5 1515.5 222 375" width="222" height="375">
  <defs>
    <marker orient="auto" overflow="visible" markerUnits="strokeWidth" id="FilledArrow_Marker" stroke-linejoin="miter" stroke-miterlimit="10" viewBox="-1 -3 7 6" markerWidth="7" markerHeight="6" color="#121212">
      <g>
        <path d="M 4.8 0 L 0 -1.8 L 0 1.8 Z" fill="currentColor" stroke="currentColor" stroke-width="1"/>
      </g>
    </marker>
    <marker orient="auto" overflow="visible" markerUnits="strokeWidth" id="FilledArrow_Marker_2" stroke-linejoin="miter" stroke-miterlimit="10" viewBox="-1 -3 6 6" markerWidth="6" markerHeight="6" color="#121212">
      <g>
        <path d="M 3.2 0 L 0 -1.2 L 0 1.2 Z" fill="currentColor" stroke="currentColor" stroke-width="1"/>
      </g>
    </marker>
  </defs>
  <g id="Injection_decision" stroke-dasharray="none" stroke="none" fill-opacity="1" fill="none" stroke-opacity="1">
    <title>Injection decision</title>
    <g id="Injection_decision_Layer_1">
      <title>Layer 1</title>
      <g id="Line_56">
        <line x1="1160.0072" y1="1731.6377" x2="1249.8129" y2="1820.2993" marker-end="url(#FilledArrow_Marker)" stroke="#121212" stroke-linecap="butt" stroke-linejoin="round" stroke-width="2"/>
      </g>
      <g id="Line_54">
        <line x1="1131" y1="1733" x2="1131" y2="1809.1" marker-end="url(#FilledArrow_Marker_2)" stroke="#121212" stroke-linecap="butt" stroke-linejoin="round" stroke-width="4"/>
      </g>
      <g id="Line_50">
        <line x1="1160.0072" y1="1576.6377" x2="1249.8129" y2="1665.2993" marker-end="url(#FilledArrow_Marker)" stroke="#121212" stroke-linecap="butt" stroke-linejoin="round" stroke-width="2"/>
      </g>
      <g id="Line_48">
        <line x1="1131" y1="1578" x2="1131" y2="1654.1" marker-end="url(#FilledArrow_Marker_2)" stroke="#121212" stroke-linecap="butt" stroke-linejoin="round" stroke-width="4"/>
      </g>
      <g id="Graphic_46">
        <path d="M 1105 1518 L 1157 1518 C 1159.2091 1518 1161 1519.7909 1161 1522 L 1161 1574 C 1161 1576.2091 1159.2091 1578 1157 1578 L 1105 1578 C 1102.7909 1578 1101 1576.2091 1101 1574 L 1101 1522 C 1101 1519.7909 1102.7909 1518 1105 1518 Z" fill="#d8dfe9"/>
        <path d="M 1105 1518 L 1157 1518 C 1159.2091 1518 1161 1519.7909 1161 1522 L 1161 1574 C 1161 1576.2091 1159.2091 1578 1157 1578 L 1105 1578 C 1102.7909 1578 1101 1576.2091 1101 1574 L 1101 1522 C 1101 1519.7909 1102.7909 1518 1105 1518 Z" stroke="black" stroke-linecap="round" stroke-linejoin="round" stroke-width="1"/>
        <text transform="translate(1106 1538.776)" fill="black">
          <tspan font-family="Helvetica Neue" font-size="16" fill="black" x="20.704" y="15">a</tspan>
        </text>
      </g>
      <g id="Graphic_47">
        <path d="M 1105 1673 L 1157 1673 C 1159.2091 1673 1161 1674.7909 1161 1677 L 1161 1729 C 1161 1731.2091 1159.2091 1733 1157 1733 L 1105 1733 C 1102.7909 1733 1101 1731.2091 1101 1729 L 1101 1677 C 1101 1674.7909 1102.7909 1673 1105 1673 Z" fill="#d8dfe9"/>
        <path d="M 1105 1673 L 1157 1673 C 1159.2091 1673 1161 1674.7909 1161 1677 L 1161 1729 C 1161 1731.2091 1159.2091 1733 1157 1733 L 1105 1733 C 1102.7909 1733 1101 1731.2091 1101 1729 L 1101 1677 C 1101 1674.7909 1102.7909 1673 1105 1673 Z" stroke="black" stroke-linecap="round" stroke-linejoin="round" stroke-width="1"/>
        <text transform="translate(1106 1693.776)" fill="black">
          <tspan font-family="Helvetica Neue" font-size="16" fill="black" x="20.256" y="15">b</tspan>
        </text>
      </g>
      <g id="Graphic_49">
        <path d="M 1262 1673 L 1314 1673 C 1316.2091 1673 1318 1674.7909 1318 1677 L 1318 1729 C 1318 1731.2091 1316.2091 1733 1314 1733 L 1262 1733 C 1259.7909 1733 1258 1731.2091 1258 1729 L 1258 1677 C 1258 1674.7909 1259.7909 1673 1262 1673 Z" fill="#d8dfe9"/>
        <path d="M 1262 1673 L 1314 1673 C 1316.2091 1673 1318 1674.7909 1318 1677 L 1318 1729 C 1318 1731.2091 1316.2091 1733 1314 1733 L 1262 1733 C 1259.7909 1733 1258 1731.2091 1258 1729 L 1258 1677 C 1258 1674.7909 1259.7909 1673 1262 1673 Z" stroke="black" stroke-linecap="round" stroke-linejoin="round" stroke-width="1"/>
        <text transform="translate(1263 1693.776)" fill="black">
          <tspan font-family="Helvetica Neue" font-size="16" fill="black" x="22.632" y="15">f</tspan>
        </text>
      </g>
      <g id="Graphic_53">
        <path d="M 1105 1828 L 1157 1828 C 1159.2091 1828 1161 1829.7909 1161 1832 L 1161 1884 C 1161 1886.2091 1159.2091 1888 1157 1888 L 1105 1888 C 1102.7909 1888 1101 1886.2091 1101 1884 L 1101 1832 C 1101 1829.7909 1102.7909 1828 1105 1828 Z" fill="#d8dfe9"/>
        <path d="M 1105 1828 L 1157 1828 C 1159.2091 1828 1161 1829.7909 1161 1832 L 1161 1884 C 1161 1886.2091 1159.2091 1888 1157 1888 L 1105 1888 C 1102.7909 1888 1101 1886.2091 1101 1884 L 1101 1832 C 1101 1829.7909 1102.7909 1828 1105 1828 Z" stroke="black" stroke-linecap="round" stroke-linejoin="round" stroke-width="1"/>
        <text transform="translate(1106 1848.776)" fill="black">
          <tspan font-family="Helvetica Neue" font-size="16" fill="black" x="20.704" y="15">c</tspan>
        </text>
      </g>
      <g id="Graphic_55">
        <path d="M 1262 1828 L 1314 1828 C 1316.2091 1828 1318 1829.7909 1318 1832 L 1318 1884 C 1318 1886.2091 1316.2091 1888 1314 1888 L 1262 1888 C 1259.7909 1888 1258 1886.2091 1258 1884 L 1258 1832 C 1258 1829.7909 1259.7909 1828 1262 1828 Z" fill="#d8dfe9"/>
        <path d="M 1262 1828 L 1314 1828 C 1316.2091 1828 1318 1829.7909 1318 1832 L 1318 1884 C 1318 1886.2091 1316.2091 1888 1314 1888 L 1262 1888 C 1259.7909 1888 1258 1886.2091 1258 1884 L 1258 1832 C 1258 1829.7909 1259.7909 1828 1262 1828 Z" stroke="black" stroke-linecap="round" stroke-linejoin="round" stroke-width="1"/>
        <text transform="translate(1263 1848.776)" fill="black">
          <tspan font-family="Helvetica Neue" font-size="16" fill="black" x="20.256" y="15">d</tspan>
        </text>
      </g>
      <g id="Line_57">
        <line x1="1258.9928" y1="1731.6377" x2="1169.1871" y2="1820.2993" marker-end="url(#FilledArrow_Marker)" stroke="#121212" stroke-linecap="butt" stroke-linejoin="round" stroke-width="2"/>
      </g>
      <g id="Graphic_58">
        <rect x="1223.3275" y="1744.1353" width="18" height="27.656006" fill="#ecf0f5"/>
        <text transform="translate(1228.3275 1749.1353)" fill="black">
          <tspan font-family="Iosevka Output" font-size="16" fill="black" x="0" y="14">1</tspan>
        </text>
      </g>
      <g id="Graphic_59">
        <rect x="1196.5335" y="1607.756" width="18" height="27.656006" fill="#ecf0f5"/>
        <text transform="translate(1201.5335 1612.756)" fill="black">
          <tspan font-family="Iosevka Output" font-size="16" fill="black" x="0" y="14">1</tspan>
        </text>
      </g>
      <g id="Graphic_61">
        <rect x="1173.0044" y="1739.5267" width="18" height="27.656006" fill="#ecf0f5"/>
        <text transform="translate(1178.0044 1744.5267)" fill="black">
          <tspan font-family="Iosevka Output" font-size="16" fill="black" x="0" y="14">1</tspan>
        </text>
      </g>
      <g id="Graphic_63">
        <rect x="1122" y="1608.7093" width="18" height="27.656006" fill="#ecf0f5"/>
        <text transform="translate(1127 1613.7093)" fill="black">
          <tspan font-family="Iosevka Output" font-size="16" fill="black" x="0" y="14">2</tspan>
        </text>
      </g>
      <g id="Graphic_64">
        <rect x="1122" y="1760.5994" width="18" height="27.656006" fill="#ecf0f5"/>
        <text transform="translate(1127 1765.5994)" fill="black">
          <tspan font-family="Iosevka Output" font-size="16" fill="black" x="0" y="14">2</tspan>
        </text>
      </g>
    </g>
  </g>
</svg>
