<?xml version="1.0" encoding="UTF-8" standalone="no"?>
<!DOCTYPE svg PUBLIC "-//W3C//DTD SVG 1.1//EN" "http://www.w3.org/Graphics/SVG/1.1/DTD/svg11.dtd">
<svg version="1.1" xmlns:xl="http://www.w3.org/1999/xlink" xmlns:dc="http://purl.org/dc/elements/1.1/" xmlns="http://www.w3.org/2000/svg" viewBox="1634.75 1865 1356.5 797" width="1356.5" height="797">
  <defs>
    <marker orient="auto" overflow="visible" markerUnits="strokeWidth" id="FilledArrow_Marker" stroke-linejoin="miter" stroke-miterlimit="10" viewBox="-1 -3 7 6" markerWidth="7" markerHeight="6" color="#121212">
      <g>
        <path d="M 4.8 0 L 0 -1.8 L 0 1.8 Z" fill="currentColor" stroke="currentColor" stroke-width="1"/>
      </g>
    </marker>
    <marker orient="auto" overflow="visible" markerUnits="strokeWidth" id="FilledArrow_Marker_2" stroke-linejoin="miter" stroke-miterlimit="10" viewBox="-6 -3 7 6" markerWidth="7" markerHeight="6" color="#121212">
      <g>
        <path d="M -4.8 0 L 0 1.8 L 0 -1.8 Z" fill="currentColor" stroke="currentColor" stroke-width="1"/>
      </g>
    </marker>
  </defs>
  <g id="Poster_Diagram_Workspace" stroke-opacity="1" stroke="none" stroke-dasharray="none" fill="none" fill-opacity="1">
    <title>Poster Diagram Workspace</title>
    <g id="Poster_Diagram_Workspace_Layer_1">
      <title>Layer 1</title>
      <g id="Group_185">
        <g id="Graphic_184">
          <path d="M 2666.8132 2232.5506 C 2607.539 2221.3125 2631.176 2126.7065 2725.7316 2142.849 C 2734.5042 2111.382 2844.4596 2116.4895 2843.7407 2142.849 C 2912.686 2109.1349 3000.794 2176.3603 2941.696 2210.0744 C 3012.6108 2226.42 2940.801 2314.4873 2882.6016 2299.776 C 2877.944 2324.2963 2773.9005 2332.877 2764.7685 2299.776 C 2705.8537 2335.1264 2583.0072 2280.7732 2666.8132 2232.5506 Z" fill="#fff4cc"/>
          <path d="M 2666.8132 2232.5506 C 2607.539 2221.3125 2631.176 2126.7065 2725.7316 2142.849 C 2734.5042 2111.382 2844.4596 2116.4895 2843.7407 2142.849 C 2912.686 2109.1349 3000.794 2176.3603 2941.696 2210.0744 C 3012.6108 2226.42 2940.801 2314.4873 2882.6016 2299.776 C 2877.944 2324.2963 2773.9005 2332.877 2764.7685 2299.776 C 2705.8537 2335.1264 2583.0072 2280.7732 2666.8132 2232.5506 Z" stroke="black" stroke-linecap="round" stroke-linejoin="round" stroke-width="2"/>
        </g>
        <g id="Line_183">
          <line x1="2414.8125" y1="2210.875" x2="2414.8125" y2="2305.475" marker-end="url(#FilledArrow_Marker)" stroke="#121212" stroke-linecap="butt" stroke-linejoin="round" stroke-width="2"/>
        </g>
        <g id="Line_182">
          <path d="M 2037.5526 2004.75 L 2034.8594 2004.75 L 2034.8594 2169.5625 L 2317.85 2169.5625" marker-end="url(#FilledArrow_Marker)" stroke="#121212" stroke-linecap="butt" stroke-linejoin="round" stroke-width="2"/>
        </g>
        <g id="Line_181">
          <line x1="1978.3125" y1="2007.25" x2="1978.3125" y2="2227.1" marker-end="url(#FilledArrow_Marker)" stroke="#121212" stroke-linecap="butt" stroke-linejoin="round" stroke-width="2"/>
        </g>
        <g id="Line_180">
          <line x1="2639.8125" y1="1965.9375" x2="2713.35" y2="1965.9375" marker-end="url(#FilledArrow_Marker)" stroke="#121212" stroke-linecap="butt" stroke-linejoin="round" stroke-width="2"/>
        </g>
        <g id="Line_179">
          <line x1="2305.9062" y1="1964.817" x2="2461.7876" y2="1965.512" marker-end="url(#FilledArrow_Marker)" stroke="#121212" stroke-linecap="butt" stroke-linejoin="round" stroke-width="2"/>
        </g>
        <g id="Line_178">
          <line x1="2056.75" y1="1964.8125" x2="2127.8812" y2="1964.8125" marker-end="url(#FilledArrow_Marker)" stroke="#121212" stroke-linecap="butt" stroke-linejoin="round" stroke-width="2"/>
        </g>
        <g id="Line_177">
          <line x1="1804.375" y1="1964.8125" x2="1886.975" y2="1964.8125" marker-end="url(#FilledArrow_Marker)" stroke="#121212" stroke-linecap="butt" stroke-linejoin="round" stroke-width="2"/>
        </g>
        <g id="Graphic_176">
          <path d="M 1643.25 1876.5 L 1800.375 1876.5 C 1802.0319 1876.5 1803.375 1877.8431 1803.375 1879.5 L 1803.375 2050.125 C 1803.375 2051.7819 1802.0319 2053.125 1800.375 2053.125 L 1643.25 2053.125 C 1641.5931 2053.125 1640.25 2051.7819 1640.25 2050.125 L 1640.25 1879.5 C 1640.25 1877.8431 1641.5931 1876.5 1643.25 1876.5 Z" fill="#fff4cc"/>
          <path d="M 1643.25 1876.5 L 1800.375 1876.5 C 1802.0319 1876.5 1803.375 1877.8431 1803.375 1879.5 L 1803.375 2050.125 C 1803.375 2051.7819 1802.0319 2053.125 1800.375 2053.125 L 1643.25 2053.125 C 1641.5931 2053.125 1640.25 2051.7819 1640.25 2050.125 L 1640.25 1879.5 C 1640.25 1877.8431 1641.5931 1876.5 1643.25 1876.5 Z" stroke="black" stroke-linecap="round" stroke-linejoin="round" stroke-width="2"/>
          <text transform="translate(1645.25 1893.1325)" fill="black">
            <tspan font-family="Helvetica Neue" font-size="24" fill="black" x="31.6585" y="23">Problem </tspan>
            <tspan font-family="Helvetica Neue" font-size="24" fill="black" x="2.7865" y="51.672">specifications </tspan>
            <tspan font-family="Helvetica Neue" font-size="24" fill="black" x="25.8985" y="80.34399">for PDEs, </tspan>
            <tspan font-family="Helvetica Neue" font-size="24" fill="black" x="43.6705" y="109.01599">Linear </tspan>
            <tspan font-family="Helvetica Neue" font-size="24" fill="black" x="5.4265" y="137.68799">systems, etc.</tspan>
          </text>
        </g>
        <g id="Graphic_175">
          <path d="M 1907.375 1924.875 L 2049.25 1924.875 C 2052.0114 1924.875 2054.25 1927.1136 2054.25 1929.875 L 2054.25 1999.75 C 2054.25 2002.5114 2052.0114 2004.75 2049.25 2004.75 L 1907.375 2004.75 C 1904.6136 2004.75 1902.375 2002.5114 1902.375 1999.75 L 1902.375 1929.875 C 1902.375 1927.1136 1904.6136 1924.875 1907.375 1924.875 Z" fill="#cdebb5"/>
          <path d="M 1907.375 1924.875 L 2049.25 1924.875 C 2052.0114 1924.875 2054.25 1927.1136 2054.25 1929.875 L 2054.25 1999.75 C 2054.25 2002.5114 2052.0114 2004.75 2049.25 2004.75 L 1907.375 2004.75 C 1904.6136 2004.75 1902.375 2002.5114 1902.375 1999.75 L 1902.375 1929.875 C 1902.375 1927.1136 1904.6136 1924.875 1907.375 1924.875 Z" stroke="#a3be8c" stroke-linecap="round" stroke-linejoin="round" stroke-width="5"/>
          <text transform="translate(1907.375 1936.1405)" fill="black">
            <tspan font-family="Helvetica Neue" font-size="24" fill="black" x="19.1575" y="23">Goldfinch</tspan>
            <tspan font-family="Helvetica Neue" font-size="24" fill="black" x="48.0415" y="51.672">DSL</tspan>
          </text>
        </g>
        <g id="Graphic_174">
          <path d="M 2144.7812 1924.875 L 2301.9062 1924.875 C 2303.563 1924.875 2304.9062 1926.2181 2304.9062 1927.875 L 2304.9062 2001.75 C 2304.9062 2003.4069 2303.563 2004.75 2301.9062 2004.75 L 2144.7812 2004.75 C 2143.1244 2004.75 2141.7812 2003.4069 2141.7812 2001.75 L 2141.7812 1927.875 C 2141.7812 1926.2181 2143.1244 1924.875 2144.7812 1924.875 Z" fill="#d8e6fd"/>
          <path d="M 2144.7812 1924.875 L 2301.9062 1924.875 C 2303.563 1924.875 2304.9062 1926.2181 2304.9062 1927.875 L 2304.9062 2001.75 C 2304.9062 2003.4069 2303.563 2004.75 2301.9062 2004.75 L 2144.7812 2004.75 C 2143.1244 2004.75 2141.7812 2003.4069 2141.7812 2001.75 L 2141.7812 1927.875 C 2141.7812 1926.2181 2143.1244 1924.875 2144.7812 1924.875 Z" stroke="black" stroke-linecap="round" stroke-linejoin="round" stroke-width="2"/>
          <text transform="translate(2146.7812 1950.4765)" fill="black">
            <tspan font-family="Helvetica Neue" font-size="24" fill="black" x="51.8905" y="23">Julia</tspan>
          </text>
        </g>
        <g id="Graphic_173">
          <path d="M 2478.6875 1927.125 L 2635.8125 1927.125 C 2637.4694 1927.125 2638.8125 1928.4681 2638.8125 1930.125 L 2638.8125 2001.75 C 2638.8125 2003.4069 2637.4694 2004.75 2635.8125 2004.75 L 2478.6875 2004.75 C 2477.0306 2004.75 2475.6875 2003.4069 2475.6875 2001.75 L 2475.6875 1930.125 C 2475.6875 1928.4681 2477.0306 1927.125 2478.6875 1927.125 Z" fill="#d8e6fd"/>
          <path d="M 2478.6875 1927.125 L 2635.8125 1927.125 C 2637.4694 1927.125 2638.8125 1928.4681 2638.8125 1930.125 L 2638.8125 2001.75 C 2638.8125 2003.4069 2637.4694 2004.75 2635.8125 2004.75 L 2478.6875 2004.75 C 2477.0306 2004.75 2475.6875 2003.4069 2475.6875 2001.75 L 2475.6875 1930.125 C 2475.6875 1928.4681 2477.0306 1927.125 2478.6875 1927.125 Z" stroke="black" stroke-linecap="round" stroke-linejoin="round" stroke-width="2"/>
          <text transform="translate(2480.6875 1951.6015)" fill="black">
            <tspan font-family="Helvetica Neue" font-size="24" fill="black" x="20.5465" y="23">LLVM/PTX</tspan>
          </text>
        </g>
        <g id="Graphic_172">
          <path d="M 2730.25 1924.875 L 2887.375 1924.875 C 2889.032 1924.875 2890.375 1926.2181 2890.375 1927.875 L 2890.375 2050.125 C 2890.375 2051.7819 2889.032 2053.125 2887.375 2053.125 L 2730.25 2053.125 C 2728.593 2053.125 2727.25 2051.7819 2727.25 2050.125 L 2727.25 1927.875 C 2727.25 1926.2181 2728.593 1924.875 2730.25 1924.875 Z" fill="#d8e6fd"/>
          <path d="M 2730.25 1924.875 L 2887.375 1924.875 C 2889.032 1924.875 2890.375 1926.2181 2890.375 1927.875 L 2890.375 2050.125 C 2890.375 2051.7819 2889.032 2053.125 2887.375 2053.125 L 2730.25 2053.125 C 2728.593 2053.125 2727.25 2051.7819 2727.25 2050.125 L 2727.25 1927.875 C 2727.25 1926.2181 2728.593 1924.875 2730.25 1924.875 Z" stroke="black" stroke-linecap="round" stroke-linejoin="round" stroke-width="2"/>
          <text transform="translate(2732.25 1960.328)" fill="black">
            <tspan font-family="Helvetica Neue" font-size="24" fill="black" x="8.2465" y="23">SASS + host </tspan>
            <tspan font-family="Helvetica Neue" font-size="24" fill="black" x="49.6705" y="51.672">code</tspan>
          </text>
        </g>
        <g id="Graphic_171">
          <ellipse cx="1978.3125" cy="2280.9375" rx="93.9376501029096" ry="39.9375638162071" fill="#fff4cc"/>
          <ellipse cx="1978.3125" cy="2280.9375" rx="93.9376501029096" ry="39.9375638162071" stroke="black" stroke-linecap="round" stroke-linejoin="round" stroke-width="2"/>
          <text transform="translate(1908.1625 2252.2655)" fill="black">
            <tspan font-family="Helvetica Neue" font-size="24" fill="black" x="25.246002" y="23">Problem </tspan>
            <tspan font-family="Helvetica Neue" font-size="24" fill="black" x="9.250002" y="51.672">parameters</tspan>
          </text>
        </g>
        <g id="Graphic_170">
          <path d="M 1806.125 2589.75 L 2724.25 2589.75 C 2727.0114 2589.75 2729.25 2591.9886 2729.25 2594.75 L 2729.25 2650 C 2729.25 2652.7614 2727.0114 2655 2724.25 2655 L 1806.125 2655 C 1803.3636 2655 1801.125 2652.7614 1801.125 2650 L 1801.125 2594.75 C 1801.125 2591.9886 1803.3636 2589.75 1806.125 2589.75 Z" fill="#cdebb5"/>
          <path d="M 1806.125 2589.75 L 2724.25 2589.75 C 2727.0114 2589.75 2729.25 2591.9886 2729.25 2594.75 L 2729.25 2650 C 2729.25 2652.7614 2727.0114 2655 2724.25 2655 L 1806.125 2655 C 1803.3636 2655 1801.125 2652.7614 1801.125 2650 L 1801.125 2594.75 C 1801.125 2591.9886 1803.3636 2589.75 1806.125 2589.75 Z" stroke="#a3be8c" stroke-linecap="round" stroke-linejoin="round" stroke-width="5"/>
          <text transform="translate(1806.125 2608.039)" fill="black">
            <tspan font-family="Helvetica Neue" font-size="24" fill="black" x="8.9905" y="23">FP-Rehab for fixing floating-point issues at multiple levels of problem representation</tspan>
          </text>
        </g>
        <g id="Graphic_169">
          <path d="M 2146.7812 2279.25 L 2299.9062 2279.25 C 2302.6677 2279.25 2304.9062 2281.4886 2304.9062 2284.25 L 2304.9062 2450.875 C 2304.9062 2453.6364 2302.6677 2455.875 2299.9062 2455.875 L 2146.7812 2455.875 C 2144.0198 2455.875 2141.7812 2453.6364 2141.7812 2450.875 L 2141.7812 2284.25 C 2141.7812 2281.4886 2144.0198 2279.25 2146.7812 2279.25 Z" fill="#cdebb5"/>
          <path d="M 2146.7812 2279.25 L 2299.9062 2279.25 C 2302.6677 2279.25 2304.9062 2281.4886 2304.9062 2284.25 L 2304.9062 2450.875 C 2304.9062 2453.6364 2302.6677 2455.875 2299.9062 2455.875 L 2146.7812 2455.875 C 2144.0198 2455.875 2141.7812 2453.6364 2141.7812 2450.875 L 2141.7812 2284.25 C 2141.7812 2281.4886 2144.0198 2279.25 2146.7812 2279.25 Z" stroke="#a3be8c" stroke-linecap="round" stroke-linejoin="round" stroke-width="5"/>
          <text transform="translate(2146.7812 2310.2185)" fill="black">
            <tspan font-family="Helvetica Neue" font-size="24" fill="black" x="27.6745" y="23">Matricies</tspan>
            <tspan font-family="Helvetica Neue" font-size="24" fill="black" x="35.0065" y="51.672">Tensors</tspan>
            <tspan font-family="Helvetica Neue" font-size="24" fill="black" x="46.5385" y="80.34399">LLVM</tspan>
            <tspan font-family="Helvetica Neue" font-size="24" fill="black" x="25.2265" y="109.01599">ETgraphs</tspan>
          </text>
        </g>
        <g id="Graphic_168">
          <path d="M 2338.25 2130.75 L 2491.375 2130.75 C 2494.1364 2130.75 2496.375 2132.9886 2496.375 2135.75 L 2496.375 2203.375 C 2496.375 2206.1364 2494.1364 2208.375 2491.375 2208.375 L 2338.25 2208.375 C 2335.4886 2208.375 2333.25 2206.1364 2333.25 2203.375 L 2333.25 2135.75 C 2333.25 2132.9886 2335.4886 2130.75 2338.25 2130.75 Z" fill="#cdebb5"/>
          <path d="M 2338.25 2130.75 L 2491.375 2130.75 C 2494.1364 2130.75 2496.375 2132.9886 2496.375 2135.75 L 2496.375 2203.375 C 2496.375 2206.1364 2494.1364 2208.375 2491.375 2208.375 L 2338.25 2208.375 C 2335.4886 2208.375 2333.25 2206.1364 2333.25 2203.375 L 2333.25 2135.75 C 2333.25 2132.9886 2335.4886 2130.75 2338.25 2130.75 Z" stroke="#a3be8c" stroke-linecap="round" stroke-linejoin="round" stroke-width="5"/>
          <text transform="translate(2338.25 2140.8905)" fill="black">
            <tspan font-family="Helvetica Neue" font-size="24" fill="black" x="1.4305" y="23">Monitors from </tspan>
            <tspan font-family="Helvetica Neue" font-size="24" fill="black" x="53.6665" y="51.672">DLS</tspan>
          </text>
        </g>
        <g id="Graphic_167">
          <path d="M 2338.25 2320.875 L 2491.375 2320.875 C 2494.1364 2320.875 2496.375 2323.1136 2496.375 2325.875 L 2496.375 2395.75 C 2496.375 2398.5114 2494.1364 2400.75 2491.375 2400.75 L 2338.25 2400.75 C 2335.4886 2400.75 2333.25 2398.5114 2333.25 2395.75 L 2333.25 2325.875 C 2333.25 2323.1136 2335.4886 2320.875 2338.25 2320.875 Z" fill="#cdebb5"/>
          <path d="M 2338.25 2320.875 L 2491.375 2320.875 C 2494.1364 2320.875 2496.375 2323.1136 2496.375 2325.875 L 2496.375 2395.75 C 2496.375 2398.5114 2494.1364 2400.75 2491.375 2400.75 L 2338.25 2400.75 C 2335.4886 2400.75 2333.25 2398.5114 2333.25 2395.75 L 2333.25 2325.875 C 2333.25 2323.1136 2335.4886 2320.875 2338.25 2320.875 Z" stroke="#a3be8c" stroke-linecap="round" stroke-linejoin="round" stroke-width="5"/>
          <text transform="translate(2338.25 2346.4765)" fill="black">
            <tspan font-family="Helvetica Neue" font-size="24" fill="black" x="29.0305" y="23">FlowFPX</tspan>
          </text>
        </g>
        <g id="Line_166">
          <line x1="2223.3438" y1="2263.85" x2="2223.3438" y2="2018.65" marker-end="url(#FilledArrow_Marker)" marker-start="url(#FilledArrow_Marker_2)" stroke="#121212" stroke-linecap="butt" stroke-linejoin="round" stroke-width="2"/>
        </g>
        <g id="Line_165">
          <path d="M 2264.125 2005.75 L 2264.125 2036.9048 L 2713.35 2036.9048" marker-end="url(#FilledArrow_Marker)" stroke="#121212" stroke-linecap="butt" stroke-linejoin="round" stroke-width="2"/>
        </g>
        <g id="Line_164">
          <line x1="2414.8125" y1="2403.25" x2="2414.8125" y2="2576.85" marker-end="url(#FilledArrow_Marker)" stroke="#121212" stroke-linecap="butt" stroke-linejoin="round" stroke-width="2"/>
        </g>
        <g id="Line_163">
          <line x1="2223.3438" y1="2589.75" x2="2223.3438" y2="2471.275" marker-end="url(#FilledArrow_Marker)" stroke="#121212" stroke-linecap="butt" stroke-linejoin="round" stroke-width="2"/>
        </g>
        <g id="Graphic_162">
          <path d="M 2480.6875 2437.875 L 2633.8125 2437.875 C 2636.574 2437.875 2638.8125 2440.1136 2638.8125 2442.875 L 2638.8125 2510.5 C 2638.8125 2513.2614 2636.574 2515.5 2633.8125 2515.5 L 2480.6875 2515.5 C 2477.926 2515.5 2475.6875 2513.2614 2475.6875 2510.5 L 2475.6875 2442.875 C 2475.6875 2440.1136 2477.926 2437.875 2480.6875 2437.875 Z" fill="#cdebb5"/>
          <path d="M 2480.6875 2437.875 L 2633.8125 2437.875 C 2636.574 2437.875 2638.8125 2440.1136 2638.8125 2442.875 L 2638.8125 2510.5 C 2638.8125 2513.2614 2636.574 2515.5 2633.8125 2515.5 L 2480.6875 2515.5 C 2477.926 2515.5 2475.6875 2513.2614 2475.6875 2510.5 L 2475.6875 2442.875 C 2475.6875 2440.1136 2477.926 2437.875 2480.6875 2437.875 Z" stroke="#a3be8c" stroke-linecap="round" stroke-linejoin="round" stroke-width="5"/>
          <text transform="translate(2480.6875 2448.0155)" fill="black">
            <tspan font-family="Helvetica Neue" font-size="24" fill="black" x="7.4545" y="23">E-Graphs for </tspan>
            <tspan font-family="Helvetica Neue" font-size="24" fill="black" x="20.5465" y="51.672">LLVM/PTX</tspan>
          </text>
        </g>
        <g id="Graphic_161">
          <path d="M 2736.75 2216.8196 L 2893.875 2216.8196 C 2895.532 2216.8196 2896.875 2218.1627 2896.875 2219.8196 L 2896.875 2291.4446 C 2896.875 2293.1014 2895.532 2294.4446 2893.875 2294.4446 L 2736.75 2294.4446 C 2735.093 2294.4446 2733.75 2293.1014 2733.75 2291.4446 L 2733.75 2219.8196 C 2733.75 2218.1627 2735.093 2216.8196 2736.75 2216.8196 Z" fill="#d8e6fd"/>
          <path d="M 2736.75 2216.8196 L 2893.875 2216.8196 C 2895.532 2216.8196 2896.875 2218.1627 2896.875 2219.8196 L 2896.875 2291.4446 C 2896.875 2293.1014 2895.532 2294.4446 2893.875 2294.4446 L 2736.75 2294.4446 C 2735.093 2294.4446 2733.75 2293.1014 2733.75 2291.4446 L 2733.75 2219.8196 C 2733.75 2218.1627 2735.093 2216.8196 2736.75 2216.8196 Z" stroke="black" stroke-linecap="round" stroke-linejoin="round" stroke-width="2"/>
          <text transform="translate(2738.75 2226.96)" fill="black">
            <tspan font-family="Helvetica Neue" font-size="24" fill="black" x="6.5545" y="23">Execution on </tspan>
            <tspan font-family="Helvetica Neue" font-size="24" fill="black" x="21.9145" y="51.672">CPU/GPU</tspan>
          </text>
        </g>
        <g id="Line_160">
          <line x1="2557.25" y1="2422.475" x2="2557.25" y2="2018.65" marker-end="url(#FilledArrow_Marker)" marker-start="url(#FilledArrow_Marker_2)" stroke="#121212" stroke-linecap="butt" stroke-linejoin="round" stroke-width="2"/>
        </g>
        <g id="Line_159">
          <path d="M 2815.3125 2295.4446 L 2815.3125 2360.8125 L 2563.75 2360.8125 C 2563.75 2354.3125 2550.75 2354.3125 2550.75 2360.8125 L 2511.775 2360.8125" marker-end="url(#FilledArrow_Marker)" stroke="#121212" stroke-linecap="butt" stroke-linejoin="round" stroke-width="2"/>
        </g>
        <g id="Line_158">
          <line x1="2557.25" y1="2589.75" x2="2557.25" y2="2530.9" marker-end="url(#FilledArrow_Marker)" stroke="#121212" stroke-linecap="butt" stroke-linejoin="round" stroke-width="2"/>
        </g>
        <g id="Group_155">
          <g id="Graphic_157">
            <path d="M 2721.2583 2160.9083 C 2719.8295 2160.9083 2718.6712 2162.0667 2718.6712 2163.4955 L 2718.6712 2179.0186 C 2718.6712 2180.4475 2719.8295 2181.6058 2721.2583 2181.6058 L 2736.7814 2181.6058 C 2738.2103 2181.6058 2739.3686 2180.4475 2739.3686 2179.0186 L 2739.3686 2163.4955 C 2739.3686 2162.0667 2738.2103 2160.9083 2736.7814 2160.9083 Z" fill="#2d3440"/>
          </g>
          <g id="Graphic_156">
            <path d="M 2716.084 2132.4494 C 2716.084 2131.0205 2714.9257 2129.8622 2713.4968 2129.8622 C 2712.068 2129.8622 2710.9096 2131.0205 2710.9096 2132.4494 L 2710.9096 2140.211 C 2703.7653 2140.211 2697.9737 2146.0025 2697.9737 2153.1468 L 2690.2122 2153.1468 C 2688.7833 2153.1468 2687.625 2154.305 2687.625 2155.734 C 2687.625 2157.1628 2688.7833 2158.3212 2690.2122 2158.3212 L 2697.9737 2158.3212 L 2697.9737 2163.4955 L 2690.2122 2163.4955 C 2688.7833 2163.4955 2687.625 2164.6538 2687.625 2166.0827 C 2687.625 2167.5116 2688.7833 2168.67 2690.2122 2168.67 L 2697.9737 2168.67 L 2697.9737 2173.8442 L 2690.2122 2173.8442 C 2688.7833 2173.8442 2687.625 2175.0026 2687.625 2176.4314 C 2687.625 2177.8603 2688.7833 2179.0186 2690.2122 2179.0186 L 2697.9737 2179.0186 L 2697.9737 2184.193 L 2690.2122 2184.193 C 2688.7833 2184.193 2687.625 2185.3513 2687.625 2186.7801 C 2687.625 2188.209 2688.7833 2189.3673 2690.2122 2189.3673 L 2697.9737 2189.3673 C 2697.9737 2196.5116 2703.7653 2202.3032 2710.9096 2202.3032 L 2710.9096 2210.0648 C 2710.9096 2211.4936 2712.068 2212.652 2713.4968 2212.652 C 2714.9257 2212.652 2716.084 2211.4936 2716.084 2210.0648 L 2716.084 2202.3032 L 2721.2583 2202.3032 L 2721.2583 2210.0648 C 2721.2583 2211.4936 2722.4167 2212.652 2723.8455 2212.652 C 2725.2744 2212.652 2726.4327 2211.4936 2726.4327 2210.0648 L 2726.4327 2202.3032 L 2731.607 2202.3032 L 2731.607 2210.0648 C 2731.607 2211.4936 2732.7654 2212.652 2734.1942 2212.652 C 2735.623 2212.652 2736.7814 2211.4936 2736.7814 2210.0648 L 2736.7814 2202.3032 L 2741.9558 2202.3032 L 2741.9558 2210.0648 C 2741.9558 2211.4936 2743.114 2212.652 2744.543 2212.652 C 2745.9718 2212.652 2747.13 2211.4936 2747.13 2210.0648 L 2747.13 2202.3032 C 2754.2745 2202.3032 2760.066 2196.5116 2760.066 2189.3673 L 2767.8276 2189.3673 C 2769.2565 2189.3673 2770.4148 2188.209 2770.4148 2186.7801 C 2770.4148 2185.3513 2769.2565 2184.193 2767.8276 2184.193 L 2760.066 2184.193 L 2760.066 2179.0186 L 2767.8276 2179.0186 C 2769.2565 2179.0186 2770.4148 2177.8603 2770.4148 2176.4314 C 2770.4148 2175.0026 2769.2565 2173.8442 2767.8276 2173.8442 L 2760.066 2173.8442 L 2760.066 2168.67 L 2767.8276 2168.67 C 2769.2565 2168.67 2770.4148 2167.5116 2770.4148 2166.0827 C 2770.4148 2164.6538 2769.2565 2163.4955 2767.8276 2163.4955 L 2760.066 2163.4955 L 2760.066 2158.3212 L 2767.8276 2158.3212 C 2769.2565 2158.3212 2770.4148 2157.1628 2770.4148 2155.734 C 2770.4148 2154.305 2769.2565 2153.1468 2767.8276 2153.1468 L 2760.066 2153.1468 C 2760.066 2146.0025 2754.2745 2140.211 2747.13 2140.211 L 2747.13 2132.4494 C 2747.13 2131.0205 2745.9718 2129.8622 2744.543 2129.8622 C 2743.114 2129.8622 2741.9558 2131.0205 2741.9558 2132.4494 L 2741.9558 2140.211 L 2736.7814 2140.211 L 2736.7814 2132.4494 C 2736.7814 2131.0205 2735.623 2129.8622 2734.1942 2129.8622 C 2732.7654 2129.8622 2731.607 2131.0205 2731.607 2132.4494 L 2731.607 2140.211 L 2726.4327 2140.211 L 2726.4327 2132.4494 C 2726.4327 2131.0205 2725.2744 2129.8622 2723.8455 2129.8622 C 2722.4167 2129.8622 2721.2583 2131.0205 2721.2583 2132.4494 L 2721.2583 2140.211 L 2716.084 2140.211 Z M 2721.2583 2155.734 L 2736.7814 2155.734 C 2741.068 2155.734 2744.543 2159.209 2744.543 2163.4955 L 2744.543 2179.0186 C 2744.543 2183.3052 2741.068 2186.7801 2736.7814 2186.7801 L 2721.2583 2186.7801 C 2716.9718 2186.7801 2713.4968 2183.3052 2713.4968 2179.0186 L 2713.4968 2163.4955 C 2713.4968 2159.209 2716.9718 2155.734 2721.2583 2155.734 Z" fill="#2d3440"/>
          </g>
        </g>
        <g id="Group_151">
          <g id="Graphic_154">
            <path d="M 2847.0536 2171.257 C 2847.0536 2166.6637 2850.7772 2162.94 2855.3705 2162.94 C 2859.964 2162.94 2863.6875 2166.6637 2863.6875 2171.257 C 2863.6875 2175.8504 2859.964 2179.574 2855.3705 2179.574 C 2850.7772 2179.574 2847.0536 2175.8504 2847.0536 2171.257 Z M 2888.6384 2162.94 C 2884.045 2162.94 2880.3214 2166.6637 2880.3214 2171.257 C 2880.3214 2175.8504 2884.045 2179.574 2888.6384 2179.574 C 2893.2317 2179.574 2896.9554 2175.8504 2896.9554 2171.257 C 2896.9554 2166.6637 2893.2317 2162.94 2888.6384 2162.94 Z" fill="#2d3440"/>
          </g>
          <g id="Graphic_153">
            <path d="M 2824.875 2135.217 C 2824.875 2133.6858 2826.1162 2132.4446 2827.6473 2132.4446 L 2833.192 2132.4446 C 2834.723 2132.4446 2835.9643 2133.6858 2835.9643 2135.217 L 2835.9643 2149.0785 L 2910.817 2149.0785 C 2912.348 2149.0785 2913.5893 2150.3197 2913.5893 2151.8508 L 2913.5893 2190.6633 C 2913.5893 2192.1944 2912.348 2193.4356 2910.817 2193.4356 L 2835.9643 2193.4356 L 2835.9643 2207.2972 C 2835.9643 2208.8283 2834.723 2210.0696 2833.192 2210.0696 C 2831.661 2210.0696 2830.4196 2208.8283 2830.4196 2207.2972 L 2830.4196 2137.9892 L 2827.6473 2137.9892 C 2826.1162 2137.9892 2824.875 2136.748 2824.875 2135.217 Z M 2855.3705 2157.3955 C 2847.715 2157.3955 2841.509 2163.6015 2841.509 2171.257 C 2841.509 2178.9126 2847.715 2185.1187 2855.3705 2185.1187 C 2863.026 2185.1187 2869.232 2178.9126 2869.232 2171.257 C 2869.232 2163.6015 2863.026 2157.3955 2855.3705 2157.3955 Z M 2874.7768 2171.257 C 2874.7768 2178.9126 2880.983 2185.1187 2888.6384 2185.1187 C 2896.294 2185.1187 2902.5 2178.9126 2902.5 2171.257 C 2902.5 2163.6015 2896.294 2157.3955 2888.6384 2157.3955 C 2880.983 2157.3955 2874.7768 2163.6015 2874.7768 2171.257 Z" fill="#2d3440"/>
          </g>
          <g id="Graphic_152">
            <path d="M 2841.509 2196.208 L 2860.9152 2196.208 L 2860.9152 2201.7526 C 2860.9152 2203.2837 2859.674 2204.525 2858.143 2204.525 L 2844.2812 2204.525 C 2842.75 2204.525 2841.509 2203.2837 2841.509 2201.7526 Z M 2863.6875 2201.7526 L 2863.6875 2196.208 L 2885.866 2196.208 L 2885.866 2201.7526 C 2885.866 2203.2837 2884.625 2204.525 2883.0938 2204.525 L 2866.4598 2204.525 C 2864.9287 2204.525 2863.6875 2203.2837 2863.6875 2201.7526 Z" fill="#2d3440"/>
          </g>
        </g>
        <g id="Line_150">
          <line x1="1978.3125" y1="2587.25" x2="1978.3125" y2="2334.775" marker-end="url(#FilledArrow_Marker)" stroke="#121212" stroke-linecap="butt" stroke-linejoin="round" stroke-width="2"/>
        </g>
        <g id="Line_149">
          <path d="M 2498.875 2169.5625 L 2550.75 2169.5625 C 2550.75 2163.0625 2563.75 2163.0625 2563.75 2169.5625 L 2628.8653 2169.5625" marker-end="url(#FilledArrow_Marker)" stroke="#121212" stroke-linecap="butt" stroke-linejoin="round" stroke-width="2"/>
        </g>
        <g id="Graphic_148">
          <path d="M 2399.625 1900.336 C 2399.625 1884.6694 2363.1454 1872 2318.0625 1872 C 2272.9796 1872 2236.5 1884.6694 2236.5 1900.336 C 2236.5 1913.6868 2263.2623 1924.9256 2299.1857 1927.8544 C 2296.238 1932.8952 2291.3801 1938.8212 2283.7328 1941.75 C 2298.468 1941.75 2313.0448 1934.8022 2323.0003 1928.6035 C 2365.7733 1927.7184 2399.625 1915.3894 2399.625 1900.336 Z" fill="#cdebb5"/>
          <path d="M 2399.625 1900.336 C 2399.625 1884.6694 2363.1454 1872 2318.0625 1872 C 2272.9796 1872 2236.5 1884.6694 2236.5 1900.336 C 2236.5 1913.6868 2263.2623 1924.9256 2299.1857 1927.8544 C 2296.238 1932.8952 2291.3801 1938.8212 2283.7328 1941.75 C 2298.468 1941.75 2313.0448 1934.8022 2323.0003 1928.6035 C 2365.7733 1927.7184 2399.625 1915.3894 2399.625 1900.336 Z" stroke="#a3be8c" stroke-linecap="round" stroke-linejoin="round" stroke-width="5"/>
          <text transform="translate(2241.5 1885)" fill="black">
            <tspan font-family="Helvetica Neue" font-size="24" fill="black" x="9.6505" y="23">Type-harden</tspan>
          </text>
        </g>
        <g id="Graphic_147">
          <path d="M 2532.375 2084.7305 C 2532.375 2064.7683 2495.8954 2048.625 2450.8125 2048.625 C 2405.7296 2048.625 2369.25 2064.7683 2369.25 2084.7305 C 2369.25 2101.742 2396.0123 2116.0625 2431.9357 2119.7943 C 2428.988 2126.2173 2424.13 2133.7681 2416.4828 2137.5 C 2431.218 2137.5 2445.7948 2128.6472 2455.7503 2120.7488 C 2498.5233 2119.621 2532.375 2103.9115 2532.375 2084.7305 Z" fill="#cdebb5"/>
          <path d="M 2532.375 2084.7305 C 2532.375 2064.7683 2495.8954 2048.625 2450.8125 2048.625 C 2405.7296 2048.625 2369.25 2064.7683 2369.25 2084.7305 C 2369.25 2101.742 2396.0123 2116.0625 2431.9357 2119.7943 C 2428.988 2126.2173 2424.13 2133.7681 2416.4828 2137.5 C 2431.218 2137.5 2445.7948 2128.6472 2455.7503 2120.7488 C 2498.5233 2119.621 2532.375 2103.9115 2532.375 2084.7305 Z" stroke="#a3be8c" stroke-linecap="round" stroke-linejoin="round" stroke-width="5"/>
          <text transform="translate(2374.25 2061.625)" fill="black">
            <tspan font-family="Helvetica Neue" font-size="16" fill="black" x="29.2905" y="15">Test benches </tspan>
            <tspan font-family="Helvetica Neue" font-size="16" fill="black" x="7.4985" y="33.448">compiled from DSL</tspan>
          </text>
        </g>
      </g>
    </g>
  </g>
</svg>
