<?xml version="1.0" encoding="UTF-8" standalone="no"?>
<!DOCTYPE svg PUBLIC "-//W3C//DTD SVG 1.1//EN" "http://www.w3.org/Graphics/SVG/1.1/DTD/svg11.dtd">
<svg xmlns:dc="http://purl.org/dc/elements/1.1/" version="1.1" xmlns:xl="http://www.w3.org/1999/xlink" xmlns="http://www.w3.org/2000/svg" viewBox="0 0 197.208 29.999" width="197.208" height="29.999">
  <defs/>
  <g id="Canvas_1" fill-opacity="1" stroke-opacity="1" stroke="none" stroke-dasharray="none" fill="none">
    <title>Canvas 1</title>
    <g id="Canvas_1_Layer_1">
      <title>Layer 1</title>
      <g id="Group_2">
        <g id="Graphic_8">
          <path d="M 14.876 15.279 C 10.816169 14.958166 7.264918 17.989175 6.944 22.049 C 6.623746 26.107904 9.654149 29.658074 13.713 29.979 C 15.662607 30.133357 17.59368 29.506913 19.081407 28.23748 C 20.569133 26.968045 21.491645 25.159607 21.646 23.21 C 21.965684 19.150729 18.93513 15.60046 14.876 15.279 Z M 14.066 25.518 C 12.47222 25.389958 11.282773 23.996082 11.407 22.402 C 11.534523 20.80782 12.928557 19.61779 14.523 19.742 C 16.117603 19.869513 17.307791 21.264182 17.183 22.859 C 17.052373 24.451198 15.658658 25.63789 14.066 25.513 Z" fill="#9558b2"/>
        </g>
        <g id="Graphic_7">
          <circle cx="2.897" cy="14.177" r="2.89700607762411" fill="#cb3c33"/>
        </g>
        <g id="Graphic_6">
          <circle cx="47.508" cy="14.177" r="2.89700607762411" fill="#cb3c33"/>
        </g>
        <g id="Group_4">
          <g id="Graphic_5">
            <path d="M 32.135 .079 C 29.346904 -.09991991 26.601928 .8360711 24.503952 2.6810603 C 22.405975 4.5260494 21.126858 7.1289 20.948 9.917 C 20.76881 12.70516 21.704706 15.450284 23.54975 17.548322 C 25.394792 19.64636 27.997802 20.9254 30.786 21.104 C 36.591723 21.476016 41.60001 17.07166 41.973 11.266 C 42.345016 5.460277 37.94066 .4519901 32.135 .079 Z M 36.979 10.946 C 36.8852 12.409763 36.21372 13.7763 35.1123 14.744944 C 34.010878 15.713588 32.56975 16.204979 31.106 16.111 C 29.642237 16.017202 28.2757 15.345722 27.307056 14.2443 C 26.338412 13.142878 25.84702 11.701752 25.941 10.238 C 26.034798 8.774237 26.706278 7.407699 27.8077 6.439056 C 28.909122 5.470412 30.35025 4.979021 31.814 5.073 C 34.861165 5.267815 37.17354 7.895817 36.979 10.943 Z" fill="#4063d8"/>
          </g>
        </g>
        <g id="Graphic_3">
          <circle cx="12.243" cy="7.158" r="5.5300116014019" fill="#3f982e"/>
        </g>
      </g>
      <g id="Group_9">
        <g id="Graphic_17">
          <path d="M 62.095 1.4499605 C 62.732125 1.2243815 63.40865 1.1314783 64.083 1.1769605 C 64.75659 1.1498518 65.42965 1.2422798 66.071 1.4499605 L 66.071 21.79296 C 66.071 27.09296 63.031 29.62696 58.549 29.62696 C 56.595086 29.60422 54.663615 29.207402 52.859 28.45796 C 52.78076 27.35565 53.16146 26.269997 53.911 25.45796 C 55.12418 25.897937 56.401716 26.134455 57.692 26.15796 C 60.186 26.15796 62.092 25.10596 62.092 21.90996 Z" fill="#2d3440"/>
        </g>
        <g id="Graphic_16">
          <path d="M 71.76 9.00996 C 72.38852 8.80496 73.04837 8.712872 73.709 8.73796 C 74.36958 8.707065 75.03015 8.7993 75.657 9.00996 L 75.657 23.03996 C 75.657 25.22296 76.787 26.46996 79.281 26.46996 C 81.07567 26.438462 82.73209 25.499574 83.681 23.97596 L 83.681 9.00996 C 84.31041 8.810377 84.96899 8.718419 85.629 8.73796 C 86.29017 8.701059 86.95219 8.79345 87.578 9.00996 L 87.578 28.96396 C 86.95236 29.181237 86.29026 29.27398 85.629 29.23696 C 84.96891 29.256544 84.31027 29.16424 83.681 28.96396 L 83.681 27.17196 C 82.17345 28.812546 80.02251 29.709837 77.796 29.62696 C 73.896 29.62696 71.755 27.24996 71.755 23.74196 Z" fill="#2d3440"/>
        </g>
        <g id="Graphic_15">
          <path d="M 97.286 28.96396 C 96.65764 29.169734 95.99771 29.262172 95.337 29.23696 C 94.67607 29.274108 94.01426 29.18136 93.389 28.96396 L 93.389 .27996052 C 94.01443 .0633286 94.67615 -.029067587 95.337 .00796052 C 95.99763 -.01712771 96.65748 .07496052 97.286 .27996052 Z" fill="#2d3440"/>
        </g>
        <g id="Graphic_14">
          <path d="M 107.146 4.8009605 C 106.49048 5.0052247 105.80521 5.097518 105.119 5.0739605 C 104.4326 5.1089637 103.74566 5.0163993 103.093 4.8009605 L 103.093 1.1379605 C 103.74566 .9225217 104.4326 .8299574 105.119 .8649605 C 105.80521 .8414031 106.49048 .9336964 107.146 1.1379605 Z M 107.068 28.96396 C 106.43961 29.16959 105.7797 29.262023 105.119 29.23696 C 104.45774 29.27398 103.79564 29.181237 103.17 28.96396 L 103.17 9.00996 C 103.7958 8.79345 104.45783 8.701059 105.119 8.73796 C 105.77963 8.712872 106.43948 8.80496 107.068 9.00996 Z" fill="#2d3440"/>
        </g>
        <g id="Graphic_13">
          <path d="M 119.928 8.347961 C 125.579 8.347961 127.372 10.88096 127.372 15.90896 L 127.372 28.96396 C 126.89695 29.183248 126.37367 29.277233 125.852 29.23696 C 125.31932 29.25095 124.78923 29.158124 124.293 28.96396 L 123.708 26.46996 C 122.695 28.53596 120.552 29.62696 117.59 29.62696 C 113.927 29.62696 111.549 27.48396 111.549 23.11896 C 111.549 18.86996 114.16 16.99996 119.032 16.99996 C 120.5161 16.998927 121.99921 17.077038 123.475 17.23396 L 123.475 15.78696 C 123.475 13.13696 122.461 11.61696 119.461 11.61696 C 117.67866 11.652704 115.91438 11.981776 114.239 12.59096 C 113.8483 12.280385 113.53934 11.879093 113.339 11.42196 C 113.12621 10.904208 113.04579 10.341594 113.105 9.78496 C 115.25493 8.837534 117.57857 8.348148 119.928 8.347961 Z M 119.539 19.64796 C 116.927 19.64796 115.563 20.66096 115.563 23.11696 C 115.563 25.64996 116.849 26.62396 118.954 26.62396 C 122.033 26.62396 123.475 24.01296 123.475 21.24596 L 123.475 19.88696 C 122.578 19.80596 121.019 19.64996 119.539 19.64996 Z" fill="#2d3440"/>
        </g>
        <g id="Graphic_12">
          <path d="M 148.962 1.4499605 C 149.60458 1.2477088 150.27669 1.1554114 150.95 1.1769605 C 151.62331 1.1554114 152.29542 1.2477088 152.938 1.4499605 L 152.938 28.96396 C 152.30961 29.16959 151.6497 29.262023 150.989 29.23696 C 150.30181 29.28441 149.61215 29.191526 148.962 28.96396 L 148.962 16.57096 L 137.27 16.57096 L 137.27 28.96396 C 136.62745 29.166344 135.95532 29.258644 135.282 29.23696 C 134.60821 29.2761 133.93326 29.183366 133.295 28.96396 L 133.295 1.4499605 C 133.92339 1.2443324 134.5833 1.1518981 135.244 1.1769605 C 135.92988 1.1533437 136.61483 1.2456395 137.27 1.4499605 L 137.27 13.14196 L 148.962 13.14196 Z" fill="#2d3440"/>
        </g>
        <g id="Graphic_11">
          <path d="M 158.86 9.00996 C 159.4882 8.805078 160.1477 8.712991 160.808 8.73796 C 161.46924 8.707095 162.13045 8.799327 162.758 9.00996 L 162.758 23.03996 C 162.758 25.22296 163.888 26.46996 166.382 26.46996 C 168.17677 26.43883 169.83335 25.49985 170.782 23.97596 L 170.782 9.00996 C 171.41174 8.810321 172.07066 8.718364 172.731 8.73796 C 173.39184 8.701087 174.05353 8.793479 174.679 9.00996 L 174.679 28.96396 C 174.0537 29.181183 173.39193 29.273926 172.731 29.23696 C 172.07058 29.2566 171.4116 29.164295 170.782 28.96396 L 170.782 27.17196 C 169.27414 28.812704 167.12283 29.709997 164.896 29.62696 C 160.996 29.62696 158.856 27.24996 158.856 23.74196 Z" fill="#2d3440"/>
        </g>
        <g id="Graphic_10">
          <path d="M 184.269 10.88096 C 185.36 9.28096 187.114 8.347961 189.881 8.347961 C 194.324 8.347961 197.208 11.03696 197.208 18.98696 C 197.208 26.93696 194.324 29.62696 189.881 29.62696 C 187.114 29.62696 185.36 28.69196 184.269 27.09396 L 184.269 28.96396 C 183.62765 29.17162 182.95459 29.264048 182.281 29.23696 C 181.63321 29.26578 180.98575 29.17319 180.372 28.96396 L 180.372 .27996052 C 180.98588 .07136939 181.63329 -.02087506 182.281 .00796052 C 182.9545 -.019049366 183.6275 .07302977 184.269 .27996052 Z M 188.517 11.54396 C 185.789 11.54396 184.269 13.80396 184.269 16.45396 L 184.269 21.44296 C 184.269 24.13196 185.789 26.43096 188.517 26.43096 C 191.635 26.43096 193.194 24.79396 193.194 18.98696 C 193.194 13.17996 191.635 11.54396 188.517 11.54396 Z" fill="#2d3440"/>
        </g>
      </g>
    </g>
  </g>
</svg>
